P3
80 80
255
0 0 0 0 0 0 0 0 0 0 0 0 0 0 0 0 0 0 0 0 0 0 0 0 
0 0 0 0 0 0 0 0 0 0 0 0 0 0 0 0 0 0 0 0 0 0 0 0 
0 0 0 0 0 0 0 0 0 0 0 0 0 0 0 0 0 0 0 0 0 0 0 0 
0 0 0 0 0 0 0 0 0 0 0 0 0 0 0 0 0 0 0 0 0 0 0 0 
0 0 0 0 0 0 0 0 0 0 0 0 15 15 14 48 49 48 75 74 73 72 72 73 
60 60 60 66 67 67 72 72 70 69 69 70 42 41 41 11 12 11 0 0 0 0 0 0 
0 0 0 0 0 0 0 0 0 0 0 0 0 0 0 0 0 0 0 0 0 0 0 0 
0 0 0 0 0 0 0 0 0 0 0 0 0 0 0 0 0 0 0 0 0 0 0 0 
0 0 0 0 0 0 0 0 0 0 0 0 0 0 0 0 0 0 0 0 0 0 0 0 
0 0 0 0 0 0 0 0 0 0 0 0 0 0 0 0 0 0 0 0 0 0 0 0 

0 0 0 0 0 0 0 0 0 0 0 0 0 0 0 0 0 0 0 0 0 0 0 0 
0 0 0 0 0 0 0 0 0 0 0 0 0 0 0 0 0 0 0 0 0 0 0 0 
0 0 0 0 0 0 0 0 0 0 0 0 0 0 0 0 0 0 0 0 0 0 0 0 
0 0 0 0 0 0 0 0 0 0 0 0 0 0 0 0 0 0 0 0 0 0 0 0 
0 0 0 0 0 0 0 0 0 12 12 12 56 58 58 80 80 80 42 41 41 15 16 18 
7 8 12 9 10 12 15 16 18 43 43 45 82 83 83 60 60 60 18 18 19 1 1 1 
0 0 0 0 0 0 0 0 0 0 0 0 0 0 0 0 0 0 0 0 0 0 0 0 
0 0 0 0 0 0 0 0 0 0 0 0 0 0 0 0 0 0 0 0 0 0 0 0 
0 0 0 0 0 0 0 0 0 0 0 0 0 0 0 0 0 0 0 0 0 0 0 0 
0 0 0 0 0 0 0 0 0 0 0 0 0 0 0 0 0 0 0 0 0 0 0 0 

0 0 0 0 0 0 0 0 0 0 0 0 0 0 0 0 0 0 0 0 0 0 0 0 
0 0 0 0 0 0 0 0 0 0 0 0 0 0 0 0 0 0 0 0 0 0 0 0 
0 0 0 0 0 0 0 0 0 0 0 0 0 0 0 0 0 0 0 0 0 0 0 0 
0 0 0 0 0 0 0 0 0 0 0 0 0 0 0 0 0 0 0 0 0 0 0 0 
0 0 0 0 0 0 2 3 2 41 38 40 72 72 73 29 30 31 12 15 17 7 9 13 
7 5 10 8 10 10 9 11 13 9 10 12 24 25 26 69 69 68 66 67 67 16 16 16 
0 0 0 0 0 0 0 0 0 0 0 0 0 0 0 0 0 0 0 0 0 0 0 0 
0 0 0 0 0 0 0 0 0 0 0 0 0 0 0 0 0 0 0 0 0 0 0 0 
0 0 0 0 0 0 0 0 0 0 0 0 0 0 0 0 0 0 0 0 0 0 0 0 
0 0 0 0 0 0 0 0 0 0 0 0 0 0 0 0 0 0 0 0 0 0 0 0 

0 0 0 0 0 0 0 0 0 0 0 0 0 0 0 0 0 0 0 0 0 0 0 0 
0 0 0 0 0 0 0 0 0 0 0 0 0 0 0 0 0 0 0 0 0 0 0 0 
0 0 0 0 0 0 0 0 0 0 0 0 0 0 0 0 0 0 0 0 0 0 0 0 
0 0 0 0 0 0 0 0 0 0 0 0 0 0 0 0 0 0 0 0 0 0 0 0 
0 0 0 0 0 0 8 8 8 66 63 65 54 54 53 6 8 9 7 8 12 7 9 13 
7 5 10 8 10 10 9 11 13 9 10 12 9 11 13 29 30 31 78 77 77 47 47 47 
5 6 5 0 0 0 0 0 0 0 0 0 0 0 0 0 0 0 0 0 0 0 0 0 
0 0 0 0 0 0 0 0 0 0 0 0 0 0 0 0 0 0 0 0 0 0 0 0 
0 0 0 0 0 0 0 0 0 0 0 0 0 0 0 0 0 0 0 0 0 0 0 0 
0 0 0 0 0 0 0 0 0 0 0 0 0 0 0 0 0 0 0 0 0 0 0 0 

0 0 0 0 0 0 0 0 0 0 0 0 0 0 0 0 0 0 0 0 0 0 0 0 
0 0 0 0 0 0 0 0 0 0 0 0 0 0 0 0 0 0 0 0 0 0 0 0 
0 0 0 0 0 0 0 0 0 0 0 0 0 0 0 0 0 0 0 0 0 0 0 0 
0 0 0 0 0 0 0 0 0 0 0 0 0 0 0 0 0 0 0 0 0 0 0 0 
0 0 0 0 0 0 15 15 14 75 74 73 43 43 45 6 8 9 7 5 10 5 4 10 
7 5 10 6 8 9 6 8 9 9 10 12 9 10 12 11 12 14 50 50 52 69 69 70 
12 12 12 0 0 0 0 0 0 0 0 0 0 0 0 0 0 0 0 0 0 0 0 0 
0 0 0 0 0 0 0 0 0 0 0 0 0 0 0 0 0 0 0 0 0 0 0 0 
0 0 0 0 0 0 0 0 0 0 0 0 0 0 0 0 0 0 0 0 0 0 0 0 
0 0 0 0 0 0 0 0 0 0 0 0 0 0 0 0 0 0 0 0 0 0 0 0 

0 0 0 0 0 0 0 0 0 0 0 0 0 0 0 0 0 0 0 0 0 0 0 0 
0 0 0 0 0 0 0 0 0 0 0 0 0 0 0 0 0 0 0 0 0 0 0 0 
0 0 0 0 0 0 0 0 0 0 0 0 0 0 0 0 0 0 0 0 0 0 0 0 
0 0 0 0 0 0 0 0 0 0 0 0 0 0 0 0 0 0 0 0 0 0 0 0 
0 0 0 0 0 0 21 21 21 74 75 76 29 30 31 6 8 9 3 4 5 0 2 5 
3 4 5 3 4 5 6 8 9 8 10 10 8 10 10 11 12 14 50 50 52 74 75 76 
16 16 16 0 0 0 0 0 0 0 0 0 0 0 0 0 0 0 0 0 0 0 0 0 
0 0 0 0 0 0 0 0 0 0 0 0 0 0 0 0 0 0 0 0 0 0 0 0 
0 0 0 0 0 0 0 0 0 0 0 0 0 0 0 0 0 0 0 0 0 0 0 0 
0 0 0 0 0 0 0 0 0 0 0 0 0 0 0 0 0 0 0 0 0 0 0 0 

0 0 0 0 0 0 0 0 0 0 0 0 0 0 0 0 0 0 0 0 0 0 0 0 
0 0 0 0 0 0 0 0 0 0 0 0 0 0 0 0 0 0 0 0 0 0 0 0 
0 0 0 0 0 0 0 0 0 0 0 0 0 0 0 0 0 0 0 0 0 0 0 0 
0 0 0 0 0 0 0 0 0 0 0 0 0 0 0 0 0 0 0 0 0 0 0 0 
2 2 2 15 15 14 48 49 48 110 110 105 56 58 58 21 20 24 21 21 21 29 30 31 
27 28 25 21 20 24 9 11 13 11 12 14 3 4 5 9 10 12 55 55 56 72 72 73 
15 15 14 0 0 0 0 0 0 0 0 0 0 0 0 0 0 0 0 0 0 0 0 0 
0 0 0 0 0 0 0 0 0 0 0 0 0 0 0 0 0 0 0 0 0 0 0 0 
0 0 0 0 0 0 0 0 0 0 0 0 0 0 0 0 0 0 0 0 0 0 0 0 
0 0 0 0 0 0 0 0 0 0 0 0 0 0 0 0 0 0 0 0 0 0 0 0 

0 0 0 0 0 0 0 0 0 0 0 0 0 0 0 0 0 0 0 0 0 0 0 0 
0 0 0 0 0 0 0 0 0 0 0 0 0 0 0 0 0 0 0 0 0 0 0 0 
0 0 0 0 0 0 0 0 0 0 0 0 0 0 0 0 0 0 0 0 0 0 0 0 
0 0 0 0 0 0 0 0 0 0 0 0 0 0 0 0 0 0 0 0 0 5 6 5 
30 29 30 66 67 67 86 84 84 82 83 83 55 55 56 37 38 37 37 38 37 37 38 37 
48 49 48 60 60 60 63 63 66 53 51 53 47 47 47 37 38 37 80 80 80 72 72 73 
12 12 12 0 0 0 0 0 0 0 0 0 0 0 0 0 0 0 0 0 0 0 0 0 
0 0 0 0 0 0 0 0 0 0 0 0 0 0 0 0 0 0 0 0 0 0 0 0 
0 0 0 0 0 0 0 0 0 0 0 0 0 0 0 0 0 0 0 0 0 0 0 0 
0 0 0 0 0 0 0 0 0 0 0 0 0 0 0 0 0 0 0 0 0 0 0 0 

0 0 0 0 0 0 0 0 0 0 0 0 0 0 0 0 0 0 0 0 0 0 0 0 
0 0 0 0 0 0 0 0 0 0 0 0 0 0 0 0 0 0 0 0 0 0 0 0 
0 0 0 0 0 0 0 0 0 0 0 0 0 0 0 0 0 0 0 0 0 0 0 0 
0 0 0 0 0 0 0 0 0 0 0 0 0 0 0 0 0 0 5 6 5 37 38 37 
80 80 80 83 81 79 69 67 65 69 67 65 75 74 73 72 69 64 59 57 55 43 43 41 
30 29 30 27 28 25 34 35 35 37 38 37 48 49 48 66 63 65 109 107 105 91 92 93 
33 33 33 4 4 4 0 0 0 0 0 0 0 0 0 0 0 0 0 0 0 0 0 0 
0 0 0 0 0 0 0 0 0 0 0 0 0 0 0 0 0 0 0 0 0 0 0 0 
0 0 0 0 0 0 0 0 0 0 0 0 0 0 0 0 0 0 0 0 0 0 0 0 
0 0 0 0 0 0 0 0 0 0 0 0 0 0 0 0 0 0 0 0 0 0 0 0 

0 0 0 0 0 0 0 0 0 0 0 0 0 0 0 0 0 0 0 0 0 0 0 0 
0 0 0 0 0 0 0 0 0 0 0 0 0 0 0 0 0 0 0 0 0 0 0 0 
0 0 0 0 0 0 0 0 0 0 0 0 0 0 0 0 0 0 0 0 0 0 0 0 
0 0 0 0 0 0 0 0 0 0 0 0 0 0 0 8 8 8 37 38 37 90 91 89 
109 107 105 104 101 95 104 101 95 107 102 92 107 105 101 107 102 92 104 99 90 96 92 83 
91 89 79 87 83 79 91 89 79 83 81 79 78 77 77 62 62 59 43 43 45 69 69 68 
80 80 80 33 33 33 5 6 5 0 0 0 0 0 0 0 0 0 0 0 0 0 0 0 
0 0 0 0 0 0 0 0 0 0 0 0 0 0 0 0 0 0 0 0 0 0 0 0 
0 0 0 0 0 0 0 0 0 0 0 0 0 0 0 0 0 0 0 0 0 0 0 0 
0 0 0 0 0 0 0 0 0 0 0 0 0 0 0 0 0 0 0 0 0 0 0 0 

0 0 0 0 0 0 0 0 0 0 0 0 0 0 0 0 0 0 0 0 0 0 0 0 
0 0 0 0 0 0 0 0 0 0 0 0 0 0 0 0 0 0 0 0 0 0 0 0 
0 0 0 0 0 0 0 0 0 0 0 0 0 0 0 0 0 0 0 0 0 0 0 0 
0 0 0 0 0 0 0 0 0 0 0 0 5 6 5 37 38 37 91 92 93 115 113 109 
107 102 92 104 99 90 104 99 90 107 102 92 107 102 92 104 99 90 104 99 90 104 99 90 
104 99 90 107 102 92 107 102 92 107 105 101 107 102 92 108 108 108 99 98 90 69 69 70 
66 67 67 80 80 80 37 35 35 4 4 4 0 0 0 0 0 0 0 0 0 0 0 0 
0 0 0 0 0 0 0 0 0 0 0 0 0 0 0 0 0 0 0 0 0 0 0 0 
0 0 0 0 0 0 0 0 0 0 0 0 0 0 0 0 0 0 0 0 0 0 0 0 
0 0 0 0 0 0 0 0 0 0 0 0 0 0 0 0 0 0 0 0 0 0 0 0 

0 0 0 0 0 0 0 0 0 0 0 0 0 0 0 0 0 0 0 0 0 0 0 0 
0 0 0 0 0 0 0 0 0 0 0 0 0 0 0 0 0 0 0 0 0 0 0 0 
0 0 0 0 0 0 0 0 0 0 0 0 0 0 0 0 0 0 0 0 0 0 0 0 
0 0 0 0 0 0 0 0 0 5 6 5 37 38 37 95 95 94 117 116 115 107 102 92 
99 98 90 104 99 90 104 99 90 104 101 95 104 101 95 104 99 90 107 102 92 107 105 101 
104 99 90 104 99 90 104 99 90 107 102 92 107 102 92 107 102 92 115 113 109 122 120 118 
101 99 98 75 74 73 78 77 77 34 35 35 4 4 4 0 0 0 0 0 0 0 0 0 
0 0 0 0 0 0 0 0 0 0 0 0 0 0 0 0 0 0 0 0 0 0 0 0 
0 0 0 0 0 0 0 0 0 0 0 0 0 0 0 0 0 0 0 0 0 0 0 0 
0 0 0 0 0 0 0 0 0 0 0 0 0 0 0 0 0 0 0 0 0 0 0 0 

0 0 0 0 0 0 0 0 0 0 0 0 0 0 0 0 0 0 0 0 0 0 0 0 
0 0 0 0 0 0 0 0 0 0 0 0 0 0 0 0 0 0 0 0 0 0 0 0 
0 0 0 0 0 0 0 0 0 0 0 0 0 0 0 0 0 0 0 0 0 0 0 0 
0 0 0 0 0 0 8 8 8 42 41 41 95 95 94 117 116 115 99 98 90 82 81 75 
69 69 68 62 62 59 57 55 52 48 48 46 45 46 44 47 43 41 52 51 48 69 67 65 
77 76 76 87 83 79 91 89 79 99 98 90 104 101 95 110 110 105 110 110 105 107 105 101 
122 120 118 115 113 109 83 81 79 72 72 73 28 26 25 1 1 1 0 0 0 0 0 0 
0 0 0 0 0 0 0 0 0 0 0 0 0 0 0 0 0 0 0 0 0 0 0 0 
0 0 0 0 0 0 0 0 0 0 0 0 0 0 0 0 0 0 0 0 0 0 0 0 
0 0 0 0 0 0 0 0 0 0 0 0 0 0 0 0 0 0 0 0 0 0 0 0 

0 0 0 0 0 0 0 0 0 0 0 0 0 0 0 0 0 0 0 0 0 0 0 0 
0 0 0 0 0 0 0 0 0 0 0 0 0 0 0 0 0 0 0 0 0 0 0 0 
0 0 0 0 0 0 0 0 0 0 0 0 0 0 0 0 0 0 0 0 0 0 0 0 
0 0 0 11 10 11 47 47 47 90 91 89 82 83 83 47 47 47 32 32 33 21 20 24 
17 15 19 17 15 19 15 16 18 15 16 18 10 12 16 11 12 11 12 14 15 15 16 18 
18 18 19 24 25 26 32 31 29 41 38 40 59 57 55 76 73 69 99 98 90 107 102 92 
110 110 105 123 123 122 122 120 118 101 99 98 63 63 66 11 12 11 0 0 0 0 0 0 
0 0 0 0 0 0 0 0 0 0 0 0 0 0 0 0 0 0 0 0 0 0 0 0 
0 0 0 0 0 0 0 0 0 0 0 0 0 0 0 0 0 0 0 0 0 0 0 0 
0 0 0 0 0 0 0 0 0 0 0 0 0 0 0 0 0 0 0 0 0 0 0 0 

0 0 0 0 0 0 0 0 0 0 0 0 0 0 0 0 0 0 0 0 0 0 0 0 
0 0 0 0 0 0 0 0 0 0 0 0 0 0 0 0 0 0 0 0 0 0 0 0 
0 0 0 0 0 0 0 0 0 0 0 0 0 0 0 0 0 0 0 0 0 0 0 0 
15 15 14 54 54 53 80 80 80 47 47 47 24 25 26 24 25 26 32 32 33 34 35 35 
37 38 37 37 38 37 42 41 41 43 43 45 45 46 44 43 43 41 41 38 40 32 31 29 
30 29 30 24 25 26 21 20 24 18 18 19 18 18 19 21 21 21 32 32 33 61 58 57 
99 98 90 115 113 109 122 120 118 123 123 122 99 98 90 34 35 35 1 1 1 0 0 0 
0 0 0 0 0 0 0 0 0 0 0 0 0 0 0 0 0 0 0 0 0 0 0 0 
0 0 0 0 0 0 0 0 0 0 0 0 0 0 0 0 0 0 0 0 0 0 0 0 
0 0 0 0 0 0 0 0 0 0 0 0 0 0 0 0 0 0 0 0 0 0 0 0 

0 0 0 0 0 0 0 0 0 0 0 0 0 0 0 0 0 0 0 0 0 0 0 0 
0 0 0 0 0 0 0 0 0 0 0 0 0 0 0 0 0 0 0 0 0 0 0 0 
0 0 0 0 0 0 0 0 0 0 0 0 0 0 0 0 0 0 0 0 0 15 15 14 
56 58 58 86 84 84 61 60 58 61 60 58 72 72 70 83 81 79 91 89 79 91 89 79 
91 89 79 91 89 79 97 93 87 99 98 90 99 98 90 99 98 90 99 98 90 96 89 85 
91 89 79 78 77 77 69 67 65 62 58 54 47 43 41 34 35 35 29 30 31 23 23 25 
32 32 33 76 73 69 122 120 118 132 130 124 117 116 115 66 63 65 11 10 11 0 0 0 
0 0 0 0 0 0 0 0 0 0 0 0 0 0 0 0 0 0 0 0 0 0 0 0 
0 0 0 0 0 0 0 0 0 0 0 0 0 0 0 0 0 0 0 0 0 0 0 0 
0 0 0 0 0 0 0 0 0 0 0 0 0 0 0 0 0 0 0 0 0 0 0 0 

0 0 0 0 0 0 0 0 0 0 0 0 0 0 0 0 0 0 0 0 0 0 0 0 
0 0 0 0 0 0 0 0 0 0 0 0 0 0 0 0 0 0 0 0 0 0 0 0 
0 0 0 0 0 0 0 0 0 0 0 0 0 0 0 0 0 0 12 12 12 55 55 56 
101 99 98 96 92 83 97 93 87 97 93 87 97 93 87 96 92 83 91 89 79 96 88 80 
96 88 80 96 92 83 96 92 83 96 92 83 96 92 83 96 88 80 96 88 80 96 89 85 
96 88 80 91 89 79 96 92 83 96 88 80 91 89 79 87 83 79 82 81 75 74 71 65 
55 55 56 43 43 41 55 55 56 110 110 105 132 130 124 99 99 99 34 35 35 2 3 2 
0 0 0 0 0 0 0 0 0 0 0 0 0 0 0 0 0 0 0 0 0 0 0 0 
0 0 0 0 0 0 0 0 0 0 0 0 0 0 0 0 0 0 0 0 0 0 0 0 
0 0 0 0 0 0 0 0 0 0 0 0 0 0 0 0 0 0 0 0 0 0 0 0 

0 0 0 0 0 0 0 0 0 0 0 0 0 0 0 0 0 0 0 0 0 0 0 0 
0 0 0 0 0 0 0 0 0 0 0 0 0 0 0 0 0 0 0 0 0 0 0 0 
0 0 0 0 0 0 0 0 0 0 0 0 0 0 0 10 9 9 48 49 48 99 99 99 
104 101 95 99 98 90 97 93 87 96 89 85 97 93 87 97 93 87 96 92 83 96 88 80 
91 89 79 91 89 79 91 89 79 91 89 79 91 89 79 96 88 80 96 89 85 91 89 79 
96 89 85 97 93 87 96 92 83 96 92 83 96 88 80 91 89 79 91 89 79 97 93 87 
97 93 87 99 98 90 87 81 75 62 58 54 104 101 95 123 123 122 75 74 73 18 18 19 
0 0 0 0 0 0 0 0 0 0 0 0 0 0 0 0 0 0 0 0 0 0 0 0 
0 0 0 0 0 0 0 0 0 0 0 0 0 0 0 0 0 0 0 0 0 0 0 0 
0 0 0 0 0 0 0 0 0 0 0 0 0 0 0 0 0 0 0 0 0 0 0 0 

0 0 0 0 0 0 0 0 0 0 0 0 0 0 0 0 0 0 0 0 0 0 0 0 
0 0 0 0 0 0 0 0 0 0 0 0 0 0 0 0 0 0 0 0 0 0 0 0 
0 0 0 0 0 0 0 0 0 0 0 0 2 3 2 37 38 37 91 92 93 109 107 105 
104 101 95 97 93 87 91 89 79 81 76 70 80 74 69 81 76 70 80 74 69 72 69 64 
67 64 59 67 64 59 67 64 59 72 72 64 74 71 65 74 71 65 74 71 65 76 73 66 
87 81 75 96 88 80 96 92 83 104 99 90 104 99 90 104 99 90 96 92 83 91 89 79 
91 89 79 91 89 79 104 99 90 107 105 101 91 89 79 99 98 90 111 111 111 50 50 52 
5 6 5 0 0 0 0 0 0 0 0 0 0 0 0 0 0 0 0 0 0 0 0 0 
0 0 0 0 0 0 0 0 0 0 0 0 0 0 0 0 0 0 0 0 0 0 0 0 
0 0 0 0 0 0 0 0 0 0 0 0 0 0 0 0 0 0 0 0 0 0 0 0 

0 0 0 0 0 0 0 0 0 0 0 0 0 0 0 0 0 0 0 0 0 0 0 0 
0 0 0 0 0 0 0 0 0 0 0 0 0 0 0 0 0 0 0 0 0 0 0 0 
0 0 0 0 0 0 0 0 0 1 1 1 24 23 22 80 80 80 110 110 105 91 89 79 
76 73 66 76 73 66 74 71 65 74 71 65 76 73 66 76 73 66 74 71 65 72 72 64 
74 71 65 74 71 65 72 72 64 76 73 69 76 73 69 74 71 65 76 73 66 81 76 70 
81 76 70 80 74 69 81 76 70 87 81 75 87 83 79 91 89 79 97 93 87 97 93 87 
97 93 87 96 92 83 91 89 79 96 92 83 115 113 109 104 101 95 85 83 84 80 80 80 
23 23 25 0 0 0 0 0 0 0 0 0 0 0 0 0 0 0 0 0 0 0 0 0 
0 0 0 0 0 0 0 0 0 0 0 0 0 0 0 0 0 0 0 0 0 0 0 0 
0 0 0 0 0 0 0 0 0 0 0 0 0 0 0 0 0 0 0 0 0 0 0 0 

0 0 0 0 0 0 0 0 0 0 0 0 0 0 0 0 0 0 0 0 0 0 0 0 
0 0 0 0 0 0 0 0 0 0 0 0 0 0 0 0 0 0 0 0 0 0 0 0 
0 0 0 0 0 0 0 0 0 16 16 16 66 67 67 104 105 102 87 81 75 67 64 59 
67 64 59 62 62 59 62 62 59 52 51 48 45 46 44 43 43 41 37 38 37 32 31 29 
30 29 30 29 30 31 29 30 31 27 28 25 30 29 30 37 35 35 42 41 41 45 46 44 
59 57 55 67 64 59 76 73 69 82 81 75 82 81 75 82 81 75 82 81 75 87 81 75 
87 83 79 96 92 83 104 99 90 104 99 90 99 98 90 123 123 122 104 105 102 78 77 77 
47 47 47 4 4 4 0 0 0 0 0 0 0 0 0 0 0 0 0 0 0 0 0 0 
0 0 0 0 0 0 0 0 0 0 0 0 0 0 0 0 0 0 0 0 0 0 0 0 
0 0 0 0 0 0 0 0 0 0 0 0 0 0 0 0 0 0 0 0 0 0 0 0 

0 0 0 0 0 0 0 0 0 0 0 0 0 0 0 0 0 0 0 0 0 0 0 0 
0 0 0 0 0 0 0 0 0 0 0 0 0 0 0 0 0 0 0 0 0 0 0 0 
0 0 0 0 0 0 10 9 9 54 54 53 104 105 102 95 95 94 72 69 64 45 46 44 
27 28 25 20 20 18 16 16 16 11 10 11 8 10 13 9 10 12 7 8 12 7 9 13 
7 9 13 7 7 12 7 9 13 7 7 12 6 8 9 8 10 13 7 9 13 8 10 13 
12 14 15 20 20 18 24 25 26 34 35 35 52 51 48 61 60 58 75 74 73 82 81 75 
82 81 75 82 81 75 87 83 79 97 93 87 104 101 95 107 102 92 132 130 124 115 113 109 
72 72 70 15 15 14 0 0 0 0 0 0 0 0 0 0 0 0 0 0 0 0 0 0 
0 0 0 0 0 0 0 0 0 0 0 0 0 0 0 0 0 0 0 0 0 0 0 0 
0 0 0 0 0 0 0 0 0 0 0 0 0 0 0 0 0 0 0 0 0 0 0 0 

0 0 0 0 0 0 0 0 0 0 0 0 0 0 0 0 0 0 0 0 0 0 0 0 
0 0 0 0 0 0 0 0 0 0 0 0 0 0 0 0 0 0 0 0 0 0 0 0 
0 0 0 2 2 2 33 33 33 95 95 94 101 99 98 59 57 55 21 21 21 10 9 9 
8 8 8 6 8 9 9 10 12 9 10 12 10 11 14 18 18 19 21 20 21 24 25 26 
24 25 26 24 23 22 28 26 25 24 25 26 21 20 21 21 20 21 15 16 18 12 15 17 
10 11 14 9 9 13 9 9 13 10 12 16 12 15 17 15 16 18 23 23 25 37 35 35 
52 47 46 66 63 65 82 81 75 87 83 79 96 89 85 104 99 90 115 113 109 144 141 133 
101 99 98 30 29 30 0 0 0 0 0 0 0 0 0 0 0 0 0 0 0 0 0 0 
0 0 0 0 0 0 0 0 0 0 0 0 0 0 0 0 0 0 0 0 0 0 0 0 
0 0 0 0 0 0 0 0 0 0 0 0 0 0 0 0 0 0 0 0 0 0 0 0 

0 0 0 0 0 0 0 0 0 0 0 0 0 0 0 0 0 0 0 0 0 0 0 0 
0 0 0 0 0 0 0 0 0 0 0 0 0 0 0 0 0 0 0 0 0 0 0 0 
0 0 0 12 12 12 69 69 70 99 99 99 45 46 44 15 15 14 10 9 9 12 12 15 
21 20 21 29 30 31 37 38 37 48 48 46 52 51 48 54 54 53 61 60 58 66 63 65 
69 67 65 69 67 65 69 67 65 72 69 64 76 73 66 69 67 65 64 62 61 62 62 59 
54 53 52 43 43 45 30 29 30 21 20 21 15 16 18 10 10 16 12 15 17 10 11 14 
12 15 17 21 20 21 37 35 35 62 62 59 87 83 79 96 89 85 97 93 87 123 123 122 
122 120 118 48 49 48 4 4 4 0 0 0 0 0 0 0 0 0 0 0 0 0 0 0 
0 0 0 0 0 0 0 0 0 0 0 0 0 0 0 0 0 0 0 0 0 0 0 0 
0 0 0 0 0 0 0 0 0 0 0 0 0 0 0 0 0 0 0 0 0 0 0 0 

0 0 0 0 0 0 0 0 0 0 0 0 0 0 0 0 0 0 0 0 0 0 0 0 
0 0 0 0 0 0 0 0 0 0 0 0 0 0 0 0 0 0 0 0 0 0 0 0 
2 2 2 37 35 35 85 83 84 37 38 37 12 15 17 18 18 19 30 29 30 43 43 45 
59 57 55 61 60 58 64 62 61 67 64 59 59 57 55 59 57 55 57 55 52 62 62 59 
59 57 55 57 55 52 62 58 54 62 58 54 64 62 61 67 64 59 72 69 64 81 76 70 
76 73 66 81 76 70 81 76 70 76 73 69 67 64 59 59 57 55 42 41 41 24 25 26 
18 18 19 15 15 14 12 12 12 12 15 17 37 38 37 78 77 77 99 98 90 104 99 90 
122 120 118 80 80 80 18 18 19 0 0 0 0 0 0 0 0 0 0 0 0 0 0 0 
0 0 0 0 0 0 0 0 0 0 0 0 0 0 0 0 0 0 0 0 0 0 0 0 
0 0 0 0 0 0 0 0 0 0 0 0 0 0 0 0 0 0 0 0 0 0 0 0 

0 0 0 0 0 0 0 0 0 0 0 0 0 0 0 0 0 0 0 0 0 0 0 0 
0 0 0 0 0 0 0 0 0 0 0 0 0 0 0 0 0 0 0 0 0 0 0 0 
11 10 11 66 63 65 55 55 56 29 30 31 47 47 47 61 60 58 62 62 59 61 60 58 
52 51 48 52 47 46 52 47 46 48 48 46 52 47 46 47 42 47 42 41 41 47 43 41 
41 38 40 41 38 40 41 38 40 41 38 40 41 38 40 42 41 41 47 43 41 52 47 46 
57 55 52 61 58 57 67 64 59 72 72 64 80 74 69 87 81 75 82 81 75 76 73 69 
62 62 59 42 41 41 21 20 24 12 15 17 15 16 18 30 29 30 69 69 68 97 93 87 
110 110 105 109 107 105 43 43 45 5 6 5 0 0 0 0 0 0 0 0 0 0 0 0 
0 0 0 0 0 0 0 0 0 0 0 0 0 0 0 0 0 0 0 0 0 0 0 0 
0 0 0 0 0 0 0 0 0 0 0 0 0 0 0 0 0 0 0 0 0 0 0 0 

0 0 0 0 0 0 0 0 0 0 0 0 0 0 0 0 0 0 0 0 0 0 0 0 
0 0 0 0 0 0 0 0 0 0 0 0 0 0 0 0 0 0 0 0 0 0 0 0 
30 29 30 89 85 87 76 73 69 72 69 64 69 67 65 57 55 52 48 48 46 45 46 44 
47 42 47 49 34 57 49 34 57 41 22 48 49 34 57 49 34 57 49 34 57 42 17 59 
42 17 59 42 17 59 51 21 70 42 17 59 42 17 59 41 22 48 41 22 48 41 22 48 
41 22 48 49 34 57 62 43 55 62 43 55 53 51 53 59 57 55 67 64 59 74 71 65 
76 73 69 82 81 75 81 76 70 54 54 53 34 35 35 21 20 24 21 20 21 52 51 48 
95 95 94 122 120 118 78 77 77 16 16 16 0 0 0 0 0 0 0 0 0 0 0 0 
0 0 0 0 0 0 0 0 0 0 0 0 0 0 0 0 0 0 0 0 0 0 0 0 
0 0 0 0 0 0 0 0 0 0 0 0 0 0 0 0 0 0 0 0 0 0 0 0 

0 0 0 0 0 0 0 0 0 0 0 0 0 0 0 0 0 0 0 0 0 0 0 0 
0 0 0 0 0 0 0 0 0 0 0 0 0 0 0 0 0 0 0 0 0 11 10 11 
61 60 58 104 105 102 82 81 75 61 60 58 52 47 46 42 41 41 49 34 57 54 31 73 
67 36 85 67 36 85 67 36 85 67 26 88 76 37 98 76 37 98 80 39 105 84 49 105 
80 39 105 89 46 112 89 46 112 95 51 123 95 51 123 95 51 123 95 51 123 95 51 123 
95 51 123 107 59 134 92 56 114 67 36 85 80 51 88 67 36 85 49 34 57 53 51 53 
61 58 57 64 62 61 76 73 69 83 81 79 82 81 75 69 67 65 37 38 37 21 20 24 
41 38 40 101 99 98 104 105 102 32 32 33 1 1 1 0 0 0 0 0 0 0 0 0 
0 0 0 0 0 0 0 0 0 0 0 0 0 0 0 0 0 0 0 0 0 0 0 0 
0 0 0 0 0 0 0 0 0 0 0 0 0 0 0 0 0 0 0 0 0 0 0 0 

0 0 0 0 0 0 0 0 0 0 0 0 0 0 0 0 0 0 0 0 0 0 0 0 
0 0 0 0 0 0 0 0 0 0 0 0 0 0 0 2 2 2 16 16 16 48 49 48 
90 91 89 72 72 64 52 51 48 37 38 37 37 35 35 62 43 55 80 51 88 84 49 105 
80 39 105 89 46 112 89 46 112 95 51 123 102 57 129 102 57 129 107 59 134 107 59 134 
114 63 144 114 63 144 116 72 144 116 72 144 116 72 144 114 63 144 107 59 134 123 68 154 
116 72 144 84 49 105 21 20 24 7 5 10 41 22 48 92 56 114 92 56 114 76 37 98 
67 36 85 62 43 55 60 60 60 67 64 59 81 76 70 89 88 84 90 91 89 69 69 68 
30 29 30 32 32 33 90 91 89 54 53 52 4 4 4 0 0 0 0 0 0 0 0 0 
0 0 0 0 0 0 0 0 0 0 0 0 0 0 0 0 0 0 0 0 0 0 0 0 
0 0 0 0 0 0 0 0 0 0 0 0 0 0 0 0 0 0 0 0 0 0 0 0 

0 0 0 0 0 0 0 0 0 0 0 0 0 0 0 0 0 0 0 0 0 0 0 0 
0 0 0 0 0 0 0 0 0 0 0 0 0 0 0 16 16 16 63 63 66 117 96 119 
122 120 118 49 34 57 21 20 24 13 8 17 36 21 41 84 49 105 92 56 114 102 57 129 
95 51 123 102 57 129 102 57 129 107 59 134 108 69 134 114 63 144 114 63 144 114 63 144 
114 63 144 107 59 134 107 59 134 107 59 134 114 63 144 114 63 144 102 57 129 84 49 105 
36 21 41 7 5 10 6 8 9 3 4 5 0 2 5 21 20 24 92 56 114 114 63 144 
107 59 134 95 51 123 76 37 98 62 43 55 53 51 53 61 60 58 77 76 76 95 95 94 
89 88 84 42 41 41 55 55 56 69 69 68 11 10 11 0 0 0 0 0 0 0 0 0 
0 0 0 0 0 0 0 0 0 0 0 0 0 0 0 0 0 0 0 0 0 0 0 0 
0 0 0 0 0 0 0 0 0 0 0 0 0 0 0 0 0 0 0 0 0 0 0 0 

0 0 0 0 0 0 0 0 0 0 0 0 0 0 0 0 0 0 0 0 0 0 0 0 
0 0 0 0 0 0 0 0 0 0 0 0 1 1 1 32 32 33 86 65 83 92 56 114 
92 56 114 67 36 85 36 21 41 19 13 26 42 17 59 92 56 114 108 69 134 108 69 134 
102 57 129 107 59 134 108 69 134 107 59 134 102 57 129 102 57 129 102 57 129 107 59 134 
102 57 129 107 59 134 102 57 129 102 57 129 84 49 105 49 34 57 32 19 30 7 7 12 
6 9 9 10 11 14 8 10 13 7 8 12 7 5 10 0 2 5 36 21 41 92 56 114 
114 63 144 123 68 154 123 68 154 102 57 129 80 51 88 62 43 55 57 55 52 69 67 65 
89 88 84 101 99 98 85 83 84 78 77 77 18 18 19 0 0 0 0 0 0 0 0 0 
0 0 0 0 0 0 0 0 0 0 0 0 0 0 0 0 0 0 0 0 0 0 0 0 
0 0 0 0 0 0 0 0 0 0 0 0 0 0 0 0 0 0 0 0 0 0 0 0 

0 0 0 0 0 0 0 0 0 0 0 0 0 0 0 0 0 0 0 0 0 0 0 0 
0 0 0 0 0 0 0 0 0 0 0 0 0 0 0 32 32 33 89 86 90 76 37 98 
67 26 88 51 21 70 42 17 59 32 19 30 51 21 70 102 57 129 116 72 144 116 72 144 
108 69 134 108 69 134 102 57 129 102 57 129 102 57 129 92 56 114 84 49 105 80 51 88 
67 36 85 54 31 73 41 22 48 19 13 26 7 7 12 5 6 5 6 8 9 9 11 13 
10 11 14 10 10 16 9 9 13 7 8 12 9 9 13 7 5 10 0 2 5 41 22 48 
107 59 134 123 68 154 123 68 154 132 72 167 123 68 154 92 56 114 80 51 88 47 47 47 
64 62 61 81 76 70 104 101 95 99 99 99 30 29 30 0 0 0 0 0 0 0 0 0 
0 0 0 0 0 0 0 0 0 0 0 0 0 0 0 0 0 0 0 0 0 0 0 0 
0 0 0 0 0 0 0 0 0 0 0 0 0 0 0 0 0 0 0 0 0 0 0 0 

0 0 0 0 0 0 0 0 0 0 0 0 0 0 0 0 0 0 0 0 0 0 0 0 
0 0 0 0 0 0 0 0 0 0 0 0 0 0 0 23 23 25 90 91 89 80 51 88 
51 21 70 42 17 59 42 17 59 32 19 30 54 31 73 116 72 144 116 72 144 108 69 134 
102 57 129 102 57 129 102 57 129 84 49 105 41 22 48 21 20 24 13 8 17 7 5 10 
0 2 5 1 3 1 3 4 5 6 9 9 8 10 10 10 10 16 10 12 16 10 12 16 
10 12 16 10 12 16 10 11 14 10 11 14 10 10 16 7 7 12 3 4 5 7 5 10 
67 36 85 114 63 144 132 72 167 132 72 167 132 72 167 123 68 154 80 51 88 21 20 24 
49 34 57 62 43 55 83 81 79 99 98 90 37 38 37 1 1 1 0 0 0 0 0 0 
0 0 0 0 0 0 0 0 0 0 0 0 0 0 0 0 0 0 0 0 0 0 0 0 
0 0 0 0 0 0 0 0 0 0 0 0 0 0 0 0 0 0 0 0 0 0 0 0 

0 0 0 0 0 0 0 0 0 0 0 0 0 0 0 0 0 0 0 0 0 0 0 0 
0 0 0 0 0 0 0 0 0 0 0 0 0 0 0 24 23 22 89 86 90 84 49 105 
51 21 70 51 21 70 51 21 70 36 21 41 67 36 85 116 72 144 116 72 144 102 57 129 
95 51 123 92 56 114 67 36 85 19 13 26 5 4 10 5 3 5 7 5 10 6 8 9 
6 9 9 8 10 10 11 12 14 10 12 16 10 12 16 10 12 16 10 12 16 12 12 15 
10 10 16 10 11 14 9 11 13 11 12 14 11 12 14 8 10 13 7 8 12 3 4 5 
31 26 32 102 57 129 132 72 167 132 72 167 132 72 167 148 96 173 80 51 88 19 13 26 
51 21 70 67 36 85 69 69 70 91 92 93 37 38 37 1 1 1 0 0 0 0 0 0 
0 0 0 0 0 0 0 0 0 0 0 0 0 0 0 0 0 0 0 0 0 0 0 0 
0 0 0 0 0 0 0 0 0 0 0 0 0 0 0 0 0 0 0 0 0 0 0 0 

0 0 0 0 0 0 0 0 0 0 0 0 0 0 0 0 0 0 0 0 0 0 0 0 
0 0 0 0 0 0 0 0 0 0 0 0 0 0 0 24 25 26 86 65 83 84 49 105 
67 36 85 54 31 73 51 21 70 42 17 59 76 37 98 116 72 144 116 72 144 95 51 123 
89 46 112 67 36 85 13 8 17 21 20 24 41 22 48 49 34 57 36 21 41 17 15 19 
10 9 9 11 12 11 11 12 14 10 12 16 10 12 16 10 12 16 11 12 14 9 11 13 
8 10 13 6 9 9 6 8 9 7 8 12 7 8 12 9 10 12 9 9 13 7 9 13 
7 7 12 67 36 85 123 68 154 132 72 167 132 72 167 148 96 173 80 51 88 32 19 30 
54 31 73 95 51 123 117 96 119 108 108 108 32 32 32 1 1 1 0 0 0 0 0 0 
0 0 0 0 0 0 0 0 0 0 0 0 0 0 0 0 0 0 0 0 0 0 0 0 
0 0 0 0 0 0 0 0 0 0 0 0 0 0 0 0 0 0 0 0 0 0 0 0 

0 0 0 0 0 0 0 0 0 0 0 0 0 0 0 0 0 0 0 0 0 0 0 0 
0 0 0 0 0 0 0 0 0 0 0 0 0 0 0 18 18 19 74 75 76 92 56 114 
76 37 98 67 26 88 51 21 70 51 21 70 89 46 112 116 72 144 116 72 144 89 46 112 
76 37 98 19 13 26 5 6 5 7 5 10 52 47 46 125 69 120 99 65 120 49 34 57 
9 10 12 9 10 12 11 12 14 12 15 17 12 15 17 12 15 17 17 15 19 31 26 32 
41 22 48 41 22 48 41 22 48 41 22 48 41 38 40 31 26 32 9 9 13 7 9 13 
5 4 10 49 34 57 114 63 144 132 72 167 132 72 167 148 96 173 67 36 85 36 21 41 
51 21 70 76 37 98 116 72 144 122 120 118 56 58 58 18 18 19 5 6 5 2 2 2 
0 0 0 0 0 0 0 0 0 0 0 0 0 0 0 0 0 0 0 0 0 0 0 0 
0 0 0 0 0 0 0 0 0 0 0 0 0 0 0 0 0 0 0 0 0 0 0 0 

0 0 0 0 0 0 0 0 0 0 0 0 0 0 0 0 0 0 0 0 0 0 0 0 
0 0 0 0 0 0 0 0 0 0 0 0 0 0 0 5 6 5 48 49 48 89 86 90 
84 49 105 76 37 98 54 31 73 67 36 85 108 69 134 116 72 144 102 57 129 80 39 105 
54 31 73 7 5 10 8 10 10 9 9 13 71 48 58 125 69 120 99 65 120 49 34 57 
6 8 9 9 11 13 10 11 14 12 15 17 12 15 17 12 15 17 21 20 24 80 51 88 
125 69 120 125 69 120 86 65 83 36 21 41 31 26 32 17 15 19 10 11 14 9 9 13 
6 8 9 21 20 24 95 51 123 132 72 167 132 72 167 148 96 173 89 46 112 36 21 41 
54 31 73 67 26 88 80 39 105 116 72 144 111 111 111 78 77 77 54 54 53 34 35 35 
11 12 11 1 1 1 0 0 0 0 0 0 0 0 0 0 0 0 0 0 0 0 0 0 
0 0 0 0 0 0 0 0 0 0 0 0 0 0 0 0 0 0 0 0 0 0 0 0 

0 0 0 0 0 0 0 0 0 0 0 0 0 0 0 0 0 0 0 0 0 0 0 0 
0 0 0 0 0 0 0 0 0 0 0 0 0 0 0 0 0 0 18 18 19 69 69 68 
99 65 120 84 49 105 67 36 85 84 49 105 148 96 173 116 72 144 95 51 123 80 39 105 
21 20 24 7 5 10 8 10 13 7 9 13 80 51 88 99 65 120 125 69 120 80 51 88 
6 8 9 9 11 13 11 12 14 12 15 17 15 16 18 12 15 17 32 19 30 125 69 120 
125 69 120 125 69 120 80 51 88 12 12 15 7 9 13 8 10 13 10 12 16 10 12 16 
7 7 12 19 13 26 80 39 105 132 72 167 132 72 167 148 96 173 84 49 105 42 17 59 
67 26 88 67 26 88 67 26 88 89 46 112 108 69 134 117 96 119 117 96 119 99 65 120 
47 47 47 5 6 5 0 0 0 0 0 0 0 0 0 0 0 0 0 0 0 0 0 0 
0 0 0 0 0 0 0 0 0 0 0 0 0 0 0 0 0 0 0 0 0 0 0 0 

0 0 0 0 0 0 0 0 0 0 0 0 0 0 0 0 0 0 0 0 0 0 0 0 
0 0 0 0 0 0 0 0 0 0 0 0 0 0 0 0 0 0 2 2 2 27 28 25 
78 77 77 117 96 119 92 56 114 92 56 114 123 68 154 114 63 144 95 51 123 54 31 73 
7 5 10 7 9 13 8 10 13 7 8 12 71 48 58 117 96 119 137 118 135 86 65 83 
6 9 9 11 12 14 12 12 15 12 12 15 15 16 18 12 15 17 36 21 41 125 69 120 
125 69 120 125 69 120 86 65 83 13 8 17 10 12 16 10 11 14 9 9 13 10 12 16 
9 10 12 13 8 17 76 37 98 123 68 154 148 96 173 148 96 173 89 46 112 51 21 70 
76 37 98 76 37 98 76 37 98 76 37 98 80 39 105 80 39 105 80 39 105 116 72 144 
66 63 65 8 8 8 0 0 0 0 0 0 0 0 0 0 0 0 0 0 0 0 0 0 
0 0 0 0 0 0 3 3 3 27 27 27 0 0 0 0 0 0 0 0 0 0 0 0 

0 0 0 0 0 0 0 0 0 0 0 0 0 0 0 0 0 0 0 0 0 0 0 0 
0 0 0 0 0 0 0 0 0 0 0 0 0 0 0 0 0 0 0 0 0 2 3 2 
27 28 25 69 69 68 107 101 105 137 118 135 148 96 173 102 57 129 108 69 134 117 116 115 
20 20 18 7 8 12 10 11 14 8 8 8 66 63 65 137 118 135 137 118 135 85 83 84 
8 8 8 11 12 14 12 12 15 12 12 15 12 14 15 10 12 16 36 21 41 125 69 120 
148 96 173 146 137 146 117 96 119 10 10 16 12 15 17 10 11 14 7 9 13 10 11 14 
11 12 14 10 10 16 67 36 85 123 68 154 148 96 173 148 96 173 76 37 98 54 31 73 
76 37 98 76 37 98 80 39 105 76 37 98 80 39 105 84 49 105 125 69 120 95 91 93 
37 38 37 4 4 4 0 0 0 0 0 0 0 0 0 0 0 0 0 0 0 0 0 0 
0 0 0 111 111 111 228 228 228 228 228 228 2 3 2 109 107 105 41 40 40 0 0 0 

0 0 0 0 0 0 0 0 0 0 0 0 0 0 0 0 0 0 0 0 0 0 0 0 
0 0 0 0 0 0 0 0 0 0 0 0 0 0 0 0 0 0 0 0 0 0 0 0 
2 2 2 15 15 14 45 46 44 107 101 105 117 96 119 107 59 134 76 37 98 133 133 133 
97 93 87 6 8 9 9 10 12 9 10 12 41 38 40 137 118 135 125 69 120 66 63 65 
5 4 10 10 11 14 11 12 14 11 12 14 11 12 14 11 12 14 31 26 32 137 118 135 
146 137 146 160 157 155 98 95 101 7 7 12 12 15 17 10 11 14 9 9 13 10 12 16 
10 11 14 7 5 10 67 36 85 123 68 154 148 96 173 148 96 173 54 31 73 67 36 85 
76 37 98 84 49 105 84 49 105 76 37 98 76 37 98 117 96 119 89 85 87 37 38 37 
8 8 8 0 0 0 0 0 0 0 0 0 0 0 0 0 0 0 0 0 0 0 0 0 
32 32 32 187 187 187 7 7 6 180 178 177 5 5 5 66 67 67 133 133 133 0 0 0 

0 0 0 0 0 0 0 0 0 0 0 0 0 0 0 0 0 0 0 0 0 0 0 0 
0 0 0 0 0 0 0 0 0 0 0 0 0 0 0 0 0 0 0 0 0 0 0 0 
0 0 0 0 0 0 10 9 9 49 49 49 98 95 101 108 69 134 67 36 85 86 65 83 
154 151 143 89 88 84 16 16 16 7 5 10 13 8 17 98 95 101 123 123 122 32 19 30 
3 4 5 3 4 5 9 10 12 6 9 9 6 9 9 9 11 13 17 15 19 117 96 119 
146 137 146 146 137 146 69 69 70 7 9 13 15 16 18 12 15 17 10 12 16 7 9 13 
7 7 12 49 49 49 99 65 120 123 68 154 148 96 173 116 72 144 51 21 70 67 36 85 
80 39 105 84 49 105 76 37 98 76 37 98 108 69 134 95 95 94 35 33 32 5 6 5 
0 0 0 0 0 0 0 0 0 0 0 0 0 0 0 0 0 0 0 0 0 0 0 0 
54 54 53 148 148 148 0 0 0 180 178 177 3 3 3 85 83 84 133 133 133 0 0 0 

0 0 0 0 0 0 0 0 0 0 0 0 0 0 0 0 0 0 0 0 0 0 0 0 
0 0 0 0 0 0 0 0 0 0 0 0 0 0 0 0 0 0 0 0 0 0 0 0 
0 0 0 0 0 0 0 0 0 11 12 11 48 48 46 80 80 80 95 91 93 89 86 90 
133 133 133 154 151 143 111 111 111 43 43 45 11 10 11 21 20 21 30 29 30 10 9 9 
28 26 25 75 74 73 111 111 111 101 99 98 52 51 48 12 12 12 5 6 5 62 43 55 
160 157 155 137 118 135 19 13 26 8 10 13 12 15 17 7 9 13 6 8 9 34 35 35 
104 105 102 168 167 164 137 118 135 123 68 154 148 96 173 89 46 112 54 31 73 67 36 85 
76 37 98 80 39 105 76 37 98 99 65 120 117 96 119 48 49 48 8 8 8 0 0 0 
0 0 0 0 0 0 0 0 0 0 0 0 0 0 0 0 0 0 0 0 0 0 0 0 
3 3 3 187 187 187 172 172 172 212 211 210 160 157 155 228 228 228 41 40 40 0 0 0 

0 0 0 0 0 0 0 0 0 0 0 0 0 0 0 0 0 0 0 0 0 0 0 0 
0 0 0 0 0 0 0 0 0 0 0 0 0 0 0 0 0 0 0 0 0 0 0 0 
0 0 0 0 0 0 0 0 0 0 0 0 5 6 5 20 20 18 35 36 35 55 55 56 
89 85 87 133 133 133 142 139 140 144 141 133 122 120 118 104 101 95 99 98 90 109 107 105 
132 130 124 144 141 133 144 141 133 144 141 133 145 144 141 109 107 105 57 55 52 21 20 24 
47 42 47 32 19 30 3 4 5 7 8 12 23 23 25 45 46 44 107 105 101 160 157 155 
168 167 164 180 178 177 146 137 146 123 68 154 148 96 173 99 65 120 84 49 105 99 65 120 
99 65 120 125 69 120 98 95 101 95 91 93 52 51 48 12 12 12 0 0 0 0 0 0 
0 0 0 0 0 0 0 0 0 0 0 0 0 0 0 0 0 0 0 0 0 0 0 0 
0 0 0 5 5 5 86 84 84 123 123 122 104 105 102 24 25 26 0 0 0 0 0 0 

0 0 0 0 0 0 0 0 0 0 0 0 0 0 0 0 0 0 0 0 0 0 0 0 
0 0 0 0 0 0 0 0 0 0 0 0 0 0 0 0 0 0 0 0 0 0 0 0 
0 0 0 0 0 0 0 0 0 0 0 0 0 0 0 0 0 0 1 1 1 8 8 8 
30 29 30 78 77 77 132 130 124 137 137 134 144 141 133 137 137 134 144 141 133 144 141 133 
144 141 133 132 130 124 122 120 118 115 113 109 122 120 118 132 130 124 137 137 134 117 116 115 
83 81 79 69 67 65 78 77 77 111 111 111 144 141 133 160 157 155 180 178 177 168 167 164 
168 167 164 168 167 164 160 157 155 114 63 144 137 118 135 98 95 101 89 88 84 85 83 84 
83 81 79 69 69 68 49 49 49 30 29 30 10 9 9 0 0 0 0 0 0 0 0 0 
0 0 0 0 0 0 0 0 0 0 0 0 0 0 0 0 0 0 0 0 0 0 0 0 
0 0 0 0 0 0 0 0 0 0 0 0 0 0 0 0 0 0 0 0 0 0 0 0 

0 0 0 0 0 0 0 0 0 0 0 0 0 0 0 0 0 0 0 0 0 0 0 0 
0 0 0 0 0 0 0 0 0 0 0 0 0 0 0 0 0 0 0 0 0 0 0 0 
0 0 0 0 0 0 0 0 0 0 0 0 0 0 0 0 0 0 0 0 0 0 0 0 
2 3 2 24 25 26 72 72 73 132 130 124 144 141 133 144 141 133 144 141 133 144 141 133 
144 141 133 145 144 141 144 141 133 144 141 133 144 141 133 144 141 133 132 130 124 144 141 133 
154 151 143 161 159 161 180 178 177 168 167 164 161 159 161 160 157 155 172 172 172 168 167 164 
123 123 122 37 38 37 72 72 73 117 116 115 61 58 57 30 29 30 21 20 21 20 20 18 
15 15 14 10 9 9 4 4 4 0 0 0 0 0 0 0 0 0 0 0 0 0 0 0 
0 0 0 0 0 0 0 0 0 0 0 0 0 0 0 0 0 0 0 0 0 0 0 0 
4 4 4 168 167 164 228 228 228 228 228 228 228 228 228 228 228 228 111 111 111 0 0 0 

0 0 0 0 0 0 0 0 0 0 0 0 0 0 0 0 0 0 0 0 0 0 0 0 
0 0 0 0 0 0 0 0 0 0 0 0 0 0 0 0 0 0 0 0 0 0 0 0 
0 0 0 0 0 0 0 0 0 0 0 0 0 0 0 0 0 0 0 0 0 0 0 0 
0 0 0 2 2 2 24 23 22 69 69 70 133 133 133 154 151 143 154 151 143 145 144 141 
145 144 141 145 144 141 145 144 141 145 144 141 145 144 141 144 141 133 144 141 133 145 144 141 
145 144 141 154 151 143 161 159 161 168 167 164 168 167 164 172 172 172 144 141 133 69 67 65 
11 10 11 12 14 15 50 50 52 72 72 70 18 18 19 1 1 1 0 0 0 0 0 0 
0 0 0 0 0 0 0 0 0 0 0 0 0 0 0 0 0 0 0 0 0 0 0 0 
0 0 0 0 0 0 0 0 0 0 0 0 0 0 0 0 0 0 0 0 0 0 0 0 
54 54 53 168 167 164 18 18 19 18 18 19 18 18 19 18 18 19 8 8 8 0 0 0 

0 0 0 0 0 0 0 0 0 0 0 0 0 0 0 0 0 0 0 0 0 0 0 0 
0 0 0 0 0 0 0 0 0 0 0 0 0 0 0 0 0 0 0 0 0 0 0 0 
0 0 0 0 0 0 0 0 0 0 0 0 0 0 0 0 0 0 0 0 0 0 0 0 
0 0 0 1 1 1 16 16 16 60 60 60 109 107 105 61 60 58 83 81 79 132 130 124 
144 141 133 145 144 141 154 151 143 154 151 143 154 151 143 154 151 143 154 151 143 154 151 143 
154 151 143 168 167 164 160 157 155 154 151 143 132 130 124 76 73 69 24 23 22 24 23 22 
34 35 35 42 41 41 85 83 84 43 43 41 4 4 4 0 0 0 0 0 0 0 0 0 
0 0 0 0 0 0 0 0 0 0 0 0 0 0 0 0 0 0 0 0 0 0 0 0 
0 0 0 0 0 0 0 0 0 0 0 0 0 0 0 0 0 0 0 0 0 0 0 0 
18 18 19 168 167 164 1 1 1 0 0 0 0 0 0 0 0 0 0 0 0 0 0 0 

0 0 0 0 0 0 0 0 0 0 0 0 0 0 0 0 0 0 0 0 0 0 0 0 
0 0 0 0 0 0 0 0 0 0 0 0 0 0 0 0 0 0 0 0 0 0 0 0 
0 0 0 0 0 0 0 0 0 0 0 0 0 0 0 0 0 0 0 0 0 0 0 0 
10 9 9 32 32 33 66 63 65 95 95 94 59 57 55 16 16 16 8 8 8 35 33 32 
61 60 58 87 81 75 104 101 95 115 113 109 122 120 118 123 123 122 122 120 118 115 113 109 
110 110 105 99 98 90 83 81 79 61 60 58 37 35 35 30 28 26 59 57 55 78 77 77 
86 84 84 104 105 102 95 95 94 33 33 33 8 8 8 0 0 0 0 0 0 0 0 0 
0 0 0 0 0 0 0 0 0 0 0 0 0 0 0 0 0 0 0 0 0 0 0 0 
0 0 0 0 0 0 0 0 0 0 0 0 0 0 0 0 0 0 0 0 0 0 0 0 
18 18 19 187 187 187 187 187 187 168 167 164 168 167 164 168 167 164 80 80 80 0 0 0 

0 0 0 0 0 0 0 0 0 0 0 0 0 0 0 0 0 0 0 0 0 0 0 0 
0 0 0 0 0 0 0 0 0 0 0 0 0 0 0 0 0 0 0 0 0 0 0 0 
0 0 0 0 0 0 0 0 0 0 0 0 0 0 0 0 0 0 0 0 0 11 12 11 
55 55 56 107 105 101 122 120 118 123 123 122 117 116 115 110 110 105 101 99 98 78 77 77 
62 58 54 52 51 48 67 64 59 82 81 75 87 83 79 87 81 75 81 76 70 74 71 65 
67 64 59 57 55 52 48 48 46 42 41 41 45 46 44 83 81 79 101 99 98 109 107 105 
101 99 98 110 110 105 122 120 118 82 83 83 47 47 47 12 12 12 0 0 0 0 0 0 
0 0 0 0 0 0 0 0 0 0 0 0 0 0 0 0 0 0 0 0 0 0 0 0 
0 0 0 0 0 0 0 0 0 0 0 0 0 0 0 0 0 0 0 0 0 0 0 0 
12 12 12 85 83 84 85 83 84 82 83 83 82 83 83 82 83 83 41 40 40 0 0 0 

0 0 0 0 0 0 0 0 0 0 0 0 0 0 0 0 0 0 0 0 0 0 0 0 
0 0 0 0 0 0 0 0 0 0 0 0 0 0 0 0 0 0 0 0 0 0 0 0 
0 0 0 0 0 0 0 0 0 0 0 0 0 0 0 2 3 2 18 18 19 54 53 52 
109 107 105 101 99 98 75 74 73 69 67 65 67 64 59 72 72 70 90 91 89 111 111 111 
132 130 124 104 105 102 64 62 61 74 71 65 83 81 79 87 83 79 77 76 76 74 71 65 
78 77 77 90 91 89 104 105 102 122 120 118 142 139 140 180 178 177 180 178 177 180 178 177 
180 178 177 168 167 164 161 159 161 168 167 164 142 139 140 48 48 46 8 8 8 0 0 0 
0 0 0 0 0 0 0 0 0 0 0 0 0 0 0 0 0 0 0 0 0 0 0 0 
0 0 0 0 0 0 0 0 0 0 0 0 0 0 0 0 0 0 0 0 0 0 0 0 
0 0 0 0 0 0 0 0 0 0 0 0 0 0 0 0 0 0 0 0 0 0 0 0 

0 0 0 0 0 0 0 0 0 0 0 0 0 0 0 0 0 0 0 0 0 0 0 0 
0 0 0 0 0 0 0 0 0 0 0 0 0 0 0 0 0 0 0 0 0 0 0 0 
0 0 0 0 0 0 0 0 0 1 1 1 15 15 14 42 41 41 75 74 73 90 91 89 
72 72 70 37 38 37 32 31 29 14 12 11 14 12 11 20 20 18 20 20 18 24 23 22 
47 43 41 109 107 105 132 130 124 83 81 79 57 55 52 67 64 59 101 99 98 137 137 134 
160 157 155 145 144 141 117 116 115 101 99 98 90 91 89 82 83 83 72 72 73 66 67 67 
66 67 67 50 50 52 50 50 52 90 91 89 132 130 124 95 95 94 45 46 44 16 16 16 
1 1 1 0 0 0 0 0 0 0 0 0 0 0 0 0 0 0 0 0 0 0 0 0 
0 0 0 0 0 0 0 0 0 0 0 0 0 0 0 0 0 0 148 148 148 80 80 80 
24 24 24 187 187 187 180 178 177 187 187 187 180 178 177 187 187 187 90 91 89 0 0 0 

0 0 0 0 0 0 0 0 0 0 0 0 0 0 0 0 0 0 0 0 0 0 0 0 
0 0 0 0 0 0 0 0 0 0 0 0 0 0 0 0 0 0 0 0 0 0 0 0 
0 0 0 0 0 0 2 3 2 23 23 25 66 63 65 91 92 93 69 69 68 48 48 46 
35 33 32 28 26 25 30 28 26 20 20 18 20 20 18 29 30 31 27 28 25 27 28 25 
32 31 29 35 36 35 109 107 105 161 159 161 104 101 95 111 111 111 160 157 155 132 130 124 
77 76 76 54 53 52 37 38 37 37 38 37 57 55 52 62 62 59 54 53 52 48 48 46 
48 48 46 34 35 35 43 43 45 50 50 52 62 62 59 89 85 87 85 83 84 69 69 68 
30 29 30 5 6 5 0 0 0 0 0 0 0 0 0 0 0 0 0 0 0 0 0 0 
0 0 0 0 0 0 0 0 0 0 0 0 0 0 0 0 0 0 69 69 68 32 32 32 
9 9 9 66 67 67 66 67 67 66 67 67 66 67 67 66 67 67 32 32 32 0 0 0 

0 0 0 0 0 0 0 0 0 0 0 0 0 0 0 0 0 0 0 0 0 0 0 0 
0 0 0 0 0 0 0 0 0 0 0 0 0 0 0 0 0 0 0 0 0 0 0 0 
0 0 0 1 1 1 24 25 26 74 75 76 99 98 90 77 76 76 52 47 46 35 33 32 
32 31 29 24 23 22 30 28 26 24 23 22 30 28 26 37 35 35 37 35 35 32 31 29 
30 28 26 30 28 26 37 35 35 78 77 77 117 116 115 111 111 111 80 80 80 52 51 48 
48 48 46 52 51 48 57 55 52 57 55 52 66 63 65 74 71 65 42 41 41 52 51 48 
48 49 48 32 31 29 50 50 52 43 43 41 29 30 31 52 51 48 62 62 59 101 99 98 
89 85 87 47 47 47 16 16 16 2 2 2 0 0 0 0 0 0 0 0 0 0 0 0 
0 0 0 0 0 0 0 0 0 0 0 0 0 0 0 0 0 0 0 0 0 0 0 0 
0 0 0 0 0 0 0 0 0 0 0 0 0 0 0 17 17 17 48 49 48 0 0 0 

0 0 0 0 0 0 0 0 0 0 0 0 0 0 0 0 0 0 0 0 0 0 0 0 
0 0 0 0 0 0 0 0 0 0 0 0 0 0 0 0 0 0 0 0 0 0 0 0 
0 0 0 16 16 16 66 67 67 95 95 94 76 73 66 62 58 54 54 53 52 32 31 29 
30 28 26 24 23 22 24 23 22 30 28 26 37 35 35 43 43 41 32 31 29 32 31 29 
42 41 41 59 57 55 42 41 41 30 28 26 32 31 29 57 55 52 75 74 73 76 73 69 
61 58 57 52 51 48 57 55 52 59 57 55 62 58 54 76 73 69 47 43 41 54 53 52 
47 43 41 27 28 25 56 58 58 37 38 37 32 32 33 48 49 48 69 67 65 83 81 79 
83 81 79 95 95 94 69 69 68 24 25 26 2 2 2 0 0 0 0 0 0 0 0 0 
0 0 0 0 0 0 0 0 0 0 0 0 0 0 0 0 0 0 57 57 57 116 116 116 
116 116 116 116 116 116 116 116 116 116 116 116 116 116 116 160 157 155 137 137 134 0 0 0 

0 0 0 0 0 0 0 0 0 0 0 0 0 0 0 0 0 0 0 0 0 0 0 0 
0 0 0 0 0 0 0 0 0 0 0 0 0 0 0 0 0 0 0 0 0 1 1 1 
16 16 16 55 55 56 144 141 133 122 120 118 52 51 48 52 47 46 47 43 41 37 35 35 
24 23 22 32 31 29 28 26 25 32 31 29 35 33 32 35 33 32 42 37 35 43 43 41 
66 63 65 48 49 48 59 57 55 41 38 40 48 48 46 83 81 79 89 88 84 109 107 105 
69 67 65 54 53 52 61 58 57 64 62 61 67 64 59 76 73 66 74 71 65 47 43 41 
42 41 41 27 28 25 62 62 59 27 28 25 32 31 29 48 49 48 72 72 70 74 71 65 
75 74 73 85 83 84 91 92 93 66 67 67 21 20 21 1 1 1 0 0 0 0 0 0 
0 0 0 0 0 0 0 0 0 0 0 0 0 0 0 0 0 0 49 49 49 116 116 116 
116 116 116 116 116 116 116 116 116 116 116 116 116 116 116 111 111 111 21 21 21 0 0 0 

0 0 0 0 0 0 0 0 0 0 0 0 0 0 0 0 0 0 0 0 0 0 0 0 
0 0 0 0 0 0 0 0 0 0 0 0 0 0 0 0 0 0 1 1 1 16 16 16 
60 60 60 144 141 133 187 187 187 160 157 155 67 64 59 30 28 26 30 28 26 27 28 25 
20 20 18 28 26 25 30 28 26 32 31 29 42 37 35 42 41 41 37 35 35 28 26 25 
59 57 55 75 74 73 83 81 79 90 91 89 86 84 84 95 95 94 111 111 111 122 120 118 
95 95 94 59 57 55 61 58 57 69 67 65 64 62 61 62 58 54 77 76 76 57 55 52 
30 28 26 30 28 26 52 51 48 21 20 21 37 38 37 59 57 55 64 62 61 72 72 70 
86 84 84 133 133 133 180 178 177 133 133 133 63 63 66 21 20 21 2 2 2 0 0 0 
0 0 0 0 0 0 0 0 0 0 0 0 0 0 0 0 0 0 0 0 0 0 0 0 
0 0 0 0 0 0 0 0 0 0 0 0 0 0 0 0 0 0 0 0 0 0 0 0 

0 0 0 0 0 0 0 0 0 0 0 0 0 0 0 0 0 0 0 0 0 0 0 0 
0 0 0 0 0 0 0 0 0 0 0 0 0 0 0 0 0 0 12 12 12 56 58 58 
142 139 140 201 199 198 180 178 177 168 167 164 111 111 111 28 26 25 15 15 14 20 20 18 
20 20 18 15 15 14 52 51 48 104 105 102 42 37 35 35 33 32 30 28 26 30 28 26 
75 74 73 101 99 98 59 57 55 45 46 44 43 43 41 48 48 46 69 69 68 95 95 94 
109 107 105 86 84 84 61 58 57 76 73 69 83 81 79 74 71 65 59 57 55 61 58 57 
28 26 25 32 31 29 27 28 25 20 20 18 37 35 35 52 47 46 61 58 57 69 67 65 
154 151 143 212 211 210 212 211 210 212 211 210 168 167 164 72 72 70 21 21 21 1 1 1 
0 0 0 0 0 0 0 0 0 0 0 0 0 0 0 0 0 0 0 0 0 0 0 0 
0 0 0 101 101 101 168 167 164 168 167 164 168 167 164 168 167 164 80 80 80 0 0 0 

0 0 0 0 0 0 0 0 0 0 0 0 0 0 0 0 0 0 0 0 0 0 0 0 
0 0 0 0 0 0 0 0 0 0 0 0 0 0 0 4 4 4 41 38 40 132 130 124 
187 187 187 180 178 177 161 159 161 154 151 143 142 139 140 86 84 84 20 20 18 11 12 11 
12 12 12 37 35 35 111 111 111 122 120 118 32 31 29 42 37 35 37 35 35 35 33 32 
72 72 70 86 84 84 64 62 61 43 43 41 41 38 40 47 43 41 52 51 48 87 83 79 
117 116 115 97 93 87 64 62 61 72 69 64 76 73 69 76 73 69 72 69 64 52 47 46 
48 48 46 95 95 94 69 69 68 15 15 14 42 37 35 47 43 41 54 53 52 110 110 105 
187 187 187 212 211 210 212 211 210 212 211 210 212 211 210 180 178 177 66 63 65 12 12 12 
0 0 0 0 0 0 0 0 0 0 0 0 0 0 0 0 0 0 0 0 0 0 0 0 
43 43 45 201 199 198 74 75 76 66 67 67 65 65 64 66 67 67 32 32 32 0 0 0 

0 0 0 0 0 0 0 0 0 0 0 0 0 0 0 0 0 0 0 0 0 0 0 0 
0 0 0 0 0 0 0 0 0 0 0 0 0 0 0 10 9 9 69 69 68 172 172 172 
187 187 187 168 167 164 161 159 161 154 151 143 142 139 140 144 141 133 90 91 89 35 33 32 
48 49 48 74 75 76 74 75 76 95 95 94 42 41 41 42 37 35 42 37 35 42 37 35 
69 67 65 83 81 79 72 72 70 78 77 77 54 53 52 69 67 65 78 77 77 101 99 98 
109 107 105 77 76 76 69 67 65 72 69 64 72 69 64 72 69 64 77 76 76 62 58 54 
42 41 41 101 99 98 133 133 133 66 67 67 43 43 41 47 43 41 66 63 65 142 139 140 
180 178 177 212 211 210 212 211 210 187 187 187 201 199 198 212 211 210 133 133 133 28 26 25 
0 0 0 0 0 0 0 0 0 0 0 0 0 0 0 0 0 0 0 0 0 0 0 0 
32 32 32 148 148 148 0 0 0 0 0 0 0 0 0 0 0 0 0 0 0 0 0 0 

0 0 0 0 0 0 0 0 0 0 0 0 0 0 0 0 0 0 0 0 0 0 0 0 
0 0 0 0 0 0 0 0 0 0 0 0 0 0 0 10 9 9 72 72 73 180 178 177 
180 178 177 160 157 155 154 151 143 133 133 133 111 111 111 86 84 84 72 72 73 61 60 58 
50 50 52 33 33 33 54 53 52 90 91 89 47 43 41 42 37 35 42 37 35 42 37 35 
61 60 58 101 99 98 89 88 84 101 99 98 85 83 84 117 116 115 101 99 98 99 98 90 
89 88 84 74 71 65 76 73 66 76 73 66 72 69 64 72 69 64 67 64 59 67 64 59 
52 47 46 77 76 76 109 107 105 95 95 94 69 69 68 57 55 52 97 93 87 145 144 141 
154 151 143 201 199 198 212 211 210 180 178 177 187 187 187 212 211 210 160 157 155 32 32 33 
1 1 1 0 0 0 0 0 0 0 0 0 0 0 0 0 0 0 0 0 0 0 0 0 
9 9 9 180 178 177 123 123 122 101 101 101 99 99 99 99 99 99 48 49 48 0 0 0 

0 0 0 0 0 0 0 0 0 0 0 0 0 0 0 0 0 0 0 0 0 0 0 0 
0 0 0 0 0 0 0 0 0 0 0 0 0 0 0 4 4 4 34 35 35 104 105 102 
133 133 133 117 116 115 89 85 87 56 58 58 33 33 33 18 18 19 11 10 11 10 9 9 
11 12 11 30 29 30 80 80 80 95 95 94 47 43 41 47 43 41 42 41 41 42 37 35 
61 60 58 66 67 67 72 72 70 83 81 79 48 48 46 78 77 77 83 81 79 69 67 65 
104 101 95 76 73 66 76 73 66 76 73 66 76 73 66 81 76 70 82 81 75 72 69 64 
48 48 46 83 81 79 91 92 93 54 53 52 66 67 67 83 81 79 95 95 94 122 120 118 
133 133 133 145 144 141 160 157 155 168 167 164 180 178 177 201 199 198 117 116 115 21 20 21 
0 0 0 0 0 0 0 0 0 0 0 0 0 0 0 0 0 0 0 0 0 0 0 0 
21 21 21 148 148 148 148 148 148 148 148 148 148 148 148 148 148 148 72 72 73 0 0 0 

0 0 0 0 0 0 0 0 0 0 0 0 0 0 0 0 0 0 0 0 0 0 0 0 
0 0 0 0 0 0 0 0 0 0 0 0 0 0 0 0 0 0 8 8 8 23 23 25 
35 36 35 32 32 33 21 20 21 8 8 8 2 2 2 0 0 0 0 0 0 2 2 2 
28 26 25 72 72 73 72 72 73 35 33 32 27 28 25 35 33 32 35 33 32 37 38 37 
57 55 52 69 69 68 85 83 84 59 57 55 47 43 41 57 55 52 76 73 69 90 91 89 
87 83 79 72 69 64 74 71 65 72 69 64 72 69 64 74 71 65 76 73 69 69 67 65 
57 55 52 82 81 75 104 105 102 50 50 52 30 29 30 41 38 40 54 53 52 50 50 52 
48 48 46 47 47 47 60 60 60 78 77 77 90 91 89 77 76 76 37 38 37 8 8 8 
0 0 0 0 0 0 0 0 0 0 0 0 0 0 0 0 0 0 0 0 0 0 0 0 
0 0 0 0 0 0 0 0 0 0 0 0 0 0 0 0 0 0 0 0 0 0 0 0 

0 0 0 0 0 0 0 0 0 0 0 0 0 0 0 0 0 0 0 0 0 0 0 0 
0 0 0 0 0 0 0 0 0 0 0 0 0 0 0 0 0 0 0 0 0 0 0 0 
2 2 2 1 1 1 0 0 0 0 0 0 0 0 0 2 3 2 8 8 8 24 23 22 
66 63 65 55 55 56 21 20 21 12 12 15 10 9 9 10 9 9 15 15 14 30 28 26 
35 33 32 43 43 41 59 57 55 43 43 41 47 43 41 52 51 48 54 53 52 64 62 61 
67 64 59 74 71 65 76 73 69 76 73 69 80 74 69 81 76 70 77 76 76 64 62 61 
42 37 35 48 49 48 101 99 98 85 83 84 41 38 40 11 10 11 5 6 5 5 6 5 
4 4 4 5 6 5 8 8 8 12 12 12 15 15 14 11 10 11 4 4 4 0 0 0 
0 0 0 0 0 0 0 0 0 0 0 0 0 0 0 0 0 0 99 99 99 49 49 49 
16 16 16 116 116 116 116 116 116 116 116 116 116 116 116 116 116 116 57 57 57 0 0 0 

0 0 0 0 0 0 0 0 0 0 0 0 0 0 0 0 0 0 0 0 0 0 0 0 
0 0 0 0 0 0 0 0 0 0 0 0 0 0 0 0 0 0 0 0 0 0 0 0 
0 0 0 0 0 0 0 0 0 10 9 9 30 29 30 50 50 52 60 60 60 80 80 80 
95 95 94 30 29 30 12 14 15 10 11 14 9 10 12 8 10 10 6 8 9 8 8 8 
10 9 9 10 9 9 17 17 17 24 23 22 30 29 30 37 35 35 42 41 41 37 38 37 
48 48 46 54 53 52 59 57 55 62 62 59 62 62 59 54 53 52 43 43 45 33 33 33 
21 20 21 21 20 21 35 33 32 61 60 58 72 72 73 21 21 21 0 0 0 0 0 0 
0 0 0 0 0 0 0 0 0 0 0 0 0 0 0 0 0 0 0 0 0 0 0 0 
0 0 0 0 0 0 0 0 0 0 0 0 0 0 0 0 0 0 122 120 118 64 62 61 
18 18 19 133 133 133 133 133 133 133 133 133 133 133 133 133 133 133 65 65 64 0 0 0 

0 0 0 0 0 0 0 0 0 0 0 0 0 0 0 0 0 0 0 0 0 0 0 0 
0 0 0 0 0 0 0 0 0 0 0 0 0 0 0 0 0 0 0 0 0 0 0 0 
0 0 0 0 0 0 15 15 14 54 53 52 85 83 84 74 75 76 78 77 77 91 92 93 
111 111 111 56 58 58 50 50 52 33 33 33 7 5 10 7 7 12 9 9 13 7 8 12 
9 10 12 9 10 12 9 10 12 12 14 15 15 16 18 15 16 18 15 16 18 8 8 8 
8 10 10 9 10 12 11 12 14 18 18 19 21 20 24 15 16 18 15 16 18 15 16 18 
21 20 24 29 30 31 30 29 30 41 38 40 74 75 76 37 35 35 1 1 1 0 0 0 
0 0 0 0 0 0 0 0 0 0 0 0 0 0 0 0 0 0 0 0 0 0 0 0 
0 0 0 0 0 0 0 0 0 0 0 0 0 0 0 0 0 0 0 0 0 0 0 0 
0 0 0 0 0 0 0 0 0 0 0 0 0 0 0 0 0 0 0 0 0 0 0 0 

0 0 0 0 0 0 0 0 0 0 0 0 0 0 0 0 0 0 0 0 0 0 0 0 
0 0 0 0 0 0 0 0 0 0 0 0 0 0 0 0 0 0 0 0 0 0 0 0 
0 0 0 12 12 12 61 60 58 85 83 84 55 55 56 33 33 33 18 18 19 16 16 16 
20 20 18 35 33 32 77 76 76 122 120 118 95 91 93 12 15 17 7 7 12 9 10 12 
7 8 12 6 8 9 8 10 10 6 8 9 6 8 9 8 10 10 6 8 9 6 8 9 
5 6 5 3 4 5 3 4 5 6 8 9 9 11 13 24 25 26 32 32 33 32 32 33 
24 25 26 30 29 30 43 43 45 66 67 67 90 91 89 41 38 40 2 2 2 0 0 0 
0 0 0 0 0 0 0 0 0 0 0 0 0 0 0 0 0 0 0 0 0 0 0 0 
0 0 0 0 0 0 0 0 0 0 0 0 0 0 0 0 0 0 0 0 0 0 0 0 
0 0 0 43 43 45 111 111 111 116 116 116 116 116 116 148 148 148 104 105 102 0 0 0 

0 0 0 0 0 0 0 0 0 0 0 0 0 0 0 0 0 0 0 0 0 0 0 0 
0 0 0 0 0 0 0 0 0 0 0 0 0 0 0 0 0 0 0 0 0 0 0 0 
5 6 5 43 43 45 95 95 94 86 84 84 109 107 105 132 130 124 111 111 111 43 43 41 
3 6 2 14 12 11 62 43 55 62 43 55 107 101 105 99 99 99 21 21 21 8 8 8 
7 7 6 21 20 21 12 12 15 8 8 8 8 10 10 8 8 8 6 8 9 7 7 6 
5 6 5 8 10 10 20 20 18 18 18 19 30 29 30 37 38 37 29 30 31 43 43 45 
56 58 58 42 41 41 23 23 25 56 58 58 117 116 115 50 50 52 8 8 8 0 0 0 
0 0 0 0 0 0 0 0 0 0 0 0 0 0 0 0 0 0 0 0 0 0 0 0 
0 0 0 0 0 0 0 0 0 0 0 0 0 0 0 0 0 0 0 0 0 0 0 0 
20 20 18 228 228 228 137 137 134 212 211 210 133 133 133 201 199 198 24 24 24 0 0 0 

0 0 0 0 0 0 0 0 0 0 0 0 0 0 0 0 0 0 0 0 0 0 0 0 
0 0 0 0 0 0 0 0 0 0 0 0 0 0 0 0 0 0 0 0 0 0 0 0 
21 20 21 80 80 80 66 67 67 27 28 25 32 32 33 47 47 47 110 110 105 144 141 133 
48 49 48 3 4 5 15 15 14 62 43 55 62 43 55 132 130 124 111 111 111 61 60 58 
78 77 77 101 99 98 78 77 77 47 47 47 32 32 33 33 33 33 34 35 35 41 38 40 
48 49 48 101 99 98 122 120 118 21 21 21 20 20 18 50 50 52 69 69 70 69 69 70 
82 83 83 80 80 80 89 85 87 66 67 67 80 80 80 90 91 89 28 26 25 1 1 1 
0 0 0 0 0 0 0 0 0 0 0 0 0 0 0 0 0 0 0 0 0 0 0 0 
0 0 0 0 0 0 0 0 0 0 0 0 0 0 0 0 0 0 0 0 0 0 0 0 
60 60 60 145 144 141 0 0 0 161 159 161 1 1 1 57 57 57 123 123 122 0 0 0 

0 0 0 0 0 0 0 0 0 0 0 0 0 0 0 0 0 0 0 0 0 0 0 0 
0 0 0 0 0 0 0 0 0 0 0 0 0 0 0 0 0 0 0 0 0 4 4 4 
48 49 48 78 77 77 21 20 21 15 15 14 18 18 19 7 8 12 20 20 18 104 105 102 
132 130 124 27 28 25 5 3 5 28 26 25 71 48 58 80 51 88 168 167 164 122 120 118 
99 99 99 50 50 52 43 43 41 56 58 58 66 63 65 69 69 68 69 69 68 69 69 68 
72 72 73 111 111 111 90 91 89 20 20 18 63 63 66 55 55 56 30 29 30 15 16 18 
12 14 15 15 16 18 37 38 37 104 105 102 90 91 89 111 111 111 66 63 65 11 10 11 
0 0 0 0 0 0 0 0 0 0 0 0 0 0 0 0 0 0 0 0 0 0 0 0 
0 0 0 0 0 0 0 0 0 0 0 0 0 0 0 0 0 0 0 0 0 0 0 0 
33 33 33 172 172 172 0 0 0 180 178 177 80 80 80 123 123 122 133 133 133 0 0 0 

0 0 0 0 0 0 0 0 0 0 0 0 0 0 0 0 0 0 0 0 0 0 0 0 
0 0 0 0 0 0 0 0 0 0 0 0 0 0 0 0 0 0 0 0 0 15 15 14 
72 72 70 50 50 52 15 15 14 11 12 14 15 16 18 12 12 15 8 8 8 29 30 31 
117 116 115 55 55 56 2 3 2 17 17 17 95 50 61 62 43 55 161 159 161 145 144 141 
69 67 65 15 15 14 2 2 2 5 6 5 11 12 11 12 12 12 12 12 12 16 16 16 
47 47 47 85 83 84 27 28 25 66 67 67 54 54 53 15 16 18 15 16 18 18 18 19 
18 18 19 15 16 18 9 10 12 24 25 26 117 116 115 90 91 89 95 95 94 30 29 30 
1 1 1 0 0 0 0 0 0 0 0 0 0 0 0 0 0 0 0 0 0 0 0 0 
0 0 0 0 0 0 0 0 0 0 0 0 0 0 0 0 0 0 0 0 0 0 0 0 
0 0 0 60 60 60 0 0 0 47 47 47 187 187 187 172 172 172 24 24 24 0 0 0 

0 0 0 0 0 0 0 0 0 0 0 0 0 0 0 0 0 0 0 0 0 0 0 0 
0 0 0 0 0 0 0 0 0 0 0 0 0 0 0 0 0 0 0 0 0 28 26 25 
74 75 76 37 35 35 21 20 21 18 18 19 11 12 14 10 11 14 9 10 12 6 8 9 
90 91 89 72 72 73 5 6 5 17 15 19 52 47 46 62 43 55 142 139 140 160 157 155 
50 50 52 5 6 5 0 0 0 0 0 0 0 0 0 0 0 0 0 0 0 8 8 8 
60 60 60 47 43 41 35 33 32 78 77 77 12 14 15 15 16 18 18 18 19 12 14 15 
18 18 19 15 16 18 9 11 13 8 10 10 48 49 48 99 99 99 109 107 105 48 49 48 
4 4 4 0 0 0 0 0 0 0 0 0 0 0 0 0 0 0 0 0 0 0 0 0 
0 0 0 0 0 0 0 0 0 0 0 0 0 0 0 0 0 0 0 0 0 0 0 0 
0 0 0 0 0 0 0 0 0 0 0 0 0 0 0 0 0 0 8 8 8 0 0 0 

0 0 0 0 0 0 0 0 0 0 0 0 0 0 0 0 0 0 0 0 0 0 0 0 
0 0 0 0 0 0 0 0 0 0 0 0 0 0 0 0 0 0 0 0 0 32 32 33 
75 74 73 32 31 29 23 23 25 18 18 19 12 14 15 12 12 15 11 12 14 15 16 18 
82 83 83 63 63 66 10 11 14 21 20 24 62 43 55 62 43 55 146 137 146 146 137 146 
37 35 35 2 2 2 0 0 0 0 0 0 0 0 0 0 0 0 0 0 0 12 12 15 
72 72 70 32 31 29 37 38 37 37 38 37 6 8 9 11 12 11 11 12 14 11 12 14 
15 16 18 15 16 18 9 11 13 11 12 14 18 18 19 85 83 84 109 107 105 66 63 65 
8 8 8 0 0 0 0 0 0 0 0 0 0 0 0 0 0 0 0 0 0 0 0 0 
0 0 0 0 0 0 0 0 0 0 0 0 0 0 0 0 0 0 0 0 0 108 108 108 
145 144 141 168 167 164 187 187 187 212 211 210 228 228 228 228 228 228 116 116 116 0 0 0 

0 0 0 0 0 0 0 0 0 0 0 0 0 0 0 0 0 0 0 0 0 0 0 0 
0 0 0 0 0 0 0 0 0 0 0 0 0 0 0 0 0 0 0 0 0 30 29 30 
75 74 73 34 35 35 23 23 25 18 18 19 12 14 15 15 16 18 9 10 12 18 18 19 
66 67 67 56 58 58 20 20 18 31 26 32 95 50 61 95 50 61 168 167 164 91 92 93 
18 18 19 0 0 0 0 0 0 0 0 0 0 0 0 0 0 0 0 0 0 11 12 11 
72 72 70 48 48 46 37 38 37 20 20 18 8 8 8 8 8 8 11 12 14 12 12 15 
15 16 18 18 18 19 15 16 18 18 18 19 24 25 26 78 77 77 99 99 99 63 63 66 
8 8 8 0 0 0 0 0 0 0 0 0 0 0 0 0 0 0 0 0 0 0 0 0 
0 0 0 0 0 0 0 0 0 0 0 0 0 0 0 0 0 0 0 0 0 212 211 210 
228 228 228 133 133 133 57 57 57 33 33 33 15 15 15 3 3 3 0 0 0 0 0 0 

0 0 0 0 0 0 0 0 0 0 0 0 0 0 0 0 0 0 0 0 0 0 0 0 
0 0 0 0 0 0 0 0 0 0 0 0 0 0 0 0 0 0 0 0 0 16 16 16 
72 72 70 48 49 48 21 20 24 15 16 18 9 11 13 10 11 14 8 10 10 24 25 26 
72 72 73 72 72 73 24 25 26 32 19 30 95 50 61 101 94 93 99 99 99 32 32 33 
4 4 4 0 0 0 0 0 0 0 0 0 0 0 0 0 0 0 0 0 0 5 6 5 
56 58 58 75 74 73 32 32 33 15 16 18 6 8 9 8 10 10 9 11 13 9 11 13 
12 12 15 15 16 18 21 20 21 30 29 30 34 35 35 69 69 70 101 99 98 45 46 44 
2 3 2 0 0 0 0 0 0 0 0 0 0 0 0 0 0 0 0 0 0 0 0 0 
0 0 0 0 0 0 0 0 0 0 0 0 0 0 0 0 0 0 0 0 0 10 10 10 
69 69 70 142 139 140 201 199 198 172 172 172 99 99 99 24 25 26 0 0 0 0 0 0 

0 0 0 0 0 0 0 0 0 0 0 0 0 0 0 0 0 0 0 0 0 0 0 0 
0 0 0 0 0 0 0 0 0 0 0 0 0 0 0 0 0 0 0 0 0 5 6 5 
47 47 47 75 74 73 29 30 31 21 20 21 9 10 12 9 11 13 7 5 10 42 41 41 
89 88 84 74 75 76 8 10 10 47 43 41 96 89 85 69 69 68 30 29 30 5 6 5 
0 0 0 0 0 0 0 0 0 0 0 0 0 0 0 0 0 0 0 0 0 1 1 1 
30 29 30 74 75 76 54 53 52 33 33 33 6 8 9 8 10 10 9 10 12 9 10 12 
9 10 12 12 12 15 23 23 25 30 29 30 34 35 35 86 84 84 90 91 89 24 25 26 
0 0 0 0 0 0 0 0 0 0 0 0 0 0 0 0 0 0 0 0 0 0 0 0 
0 0 0 0 0 0 0 0 0 0 0 0 0 0 0 0 0 0 0 0 0 0 0 0 
0 0 0 0 0 0 16 16 16 111 111 111 228 228 228 160 157 155 0 0 0 0 0 0 

0 0 0 0 0 0 0 0 0 0 0 0 0 0 0 0 0 0 0 0 0 0 0 0 
0 0 0 0 0 0 0 0 0 0 0 0 0 0 0 0 0 0 0 0 0 0 0 0 
16 16 16 63 63 66 69 69 70 34 35 35 7 8 12 6 8 9 9 10 12 72 72 73 
104 105 102 35 33 32 30 29 30 78 77 77 54 54 53 16 16 16 2 2 2 0 0 0 
0 0 0 0 0 0 0 0 0 0 0 0 0 0 0 0 0 0 0 0 0 0 0 0 
8 8 8 42 41 41 82 83 83 95 95 94 41 38 40 7 5 10 6 8 9 9 10 12 
9 10 12 10 11 14 24 23 22 37 38 37 59 57 55 95 95 94 55 55 56 8 8 8 
0 0 0 0 0 0 0 0 0 0 0 0 0 0 0 0 0 0 0 0 0 0 0 0 
0 0 0 0 0 0 0 0 0 0 0 0 0 0 0 0 0 0 0 0 0 42 41 41 
116 116 116 187 187 187 212 211 210 133 133 133 60 60 60 3 3 3 0 0 0 0 0 0 

0 0 0 0 0 0 0 0 0 0 0 0 0 0 0 0 0 0 0 0 0 0 0 0 
0 0 0 0 0 0 0 0 0 0 0 0 0 0 0 0 0 0 0 0 0 0 0 0 
1 1 1 18 18 19 56 58 58 66 67 67 54 53 52 47 47 47 60 60 60 91 92 93 
86 84 84 66 63 65 60 60 60 37 35 35 8 8 8 0 0 0 0 0 0 0 0 0 
0 0 0 0 0 0 0 0 0 0 0 0 0 0 0 0 0 0 0 0 0 0 0 0 
0 0 0 8 8 8 34 35 35 83 81 79 72 72 73 43 43 45 37 38 37 24 25 26 
24 25 26 34 35 35 62 62 59 66 67 67 78 77 77 72 72 73 21 20 21 1 1 1 
0 0 0 0 0 0 0 0 0 0 0 0 0 0 0 0 0 0 0 0 0 0 0 0 
0 0 0 0 0 0 0 0 0 0 0 0 0 0 0 0 0 0 1 1 1 212 211 210 
212 211 210 133 133 133 82 83 83 70 70 70 53 51 53 32 32 32 8 8 8 0 0 0 

0 0 0 0 0 0 0 0 0 0 0 0 0 0 0 0 0 0 0 0 0 0 0 0 
0 0 0 0 0 0 0 0 0 0 0 0 0 0 0 0 0 0 0 0 0 0 0 0 
0 0 0 0 0 0 10 9 9 30 29 30 47 47 47 54 53 52 48 49 48 37 38 37 
30 29 30 23 23 25 12 12 12 2 3 2 0 0 0 0 0 0 0 0 0 0 0 0 
0 0 0 0 0 0 0 0 0 0 0 0 0 0 0 0 0 0 0 0 0 0 0 0 
0 0 0 0 0 0 4 4 4 24 25 26 54 54 53 72 72 73 82 83 83 75 74 73 
72 72 73 72 72 73 69 69 68 56 58 58 42 41 41 16 16 16 2 2 2 0 0 0 
0 0 0 0 0 0 0 0 0 0 0 0 0 0 0 0 0 0 0 0 0 0 0 0 
0 0 0 0 0 0 0 0 0 0 0 0 0 0 0 0 0 0 0 0 0 72 72 73 
108 108 108 123 123 122 145 144 141 161 159 161 187 187 187 201 199 198 108 108 108 0 0 0 

0 0 0 0 0 0 0 0 0 0 0 0 0 0 0 0 0 0 0 0 0 0 0 0 
0 2 0 0 0 0 0 0 0 0 0 2 0 0 2 0 0 2 0 0 2 0 0 2 
0 0 0 0 0 0 0 2 0 1 3 1 4 4 4 4 4 4 3 4 5 5 3 5 
5 4 10 5 3 5 5 3 5 7 7 6 7 7 6 1 3 1 1 3 1 3 4 5 
4 4 4 0 0 0 0 0 0 0 0 0 0 0 0 2 2 2 0 0 2 0 0 0 
0 0 0 0 0 0 0 0 0 1 1 1 11 10 11 20 20 18 24 23 22 28 26 25 
23 23 25 18 18 19 14 12 11 10 9 9 7 7 6 3 6 2 6 8 9 7 5 10 
7 5 10 0 2 5 0 0 0 1 3 1 1 3 1 0 0 0 0 0 2 0 2 5 
0 0 2 0 0 2 0 0 2 0 0 0 0 0 0 0 0 2 0 0 2 0 0 0 
0 2 5 0 2 5 0 2 5 0 0 2 0 0 0 1 1 1 0 0 0 0 2 0 

