P3
# Standard 224-color Linux logo
80 80
255
0 0 0 0 0 0 0 0 0 0 0 0 0 0 0 0 0 0 0 0 0 0 0 0 
0 0 0 0 0 0 0 0 0 0 0 0 0 0 0 0 0 0 0 0 0 0 0 0 
0 0 0 0 0 0 0 0 0 0 0 0 0 0 0 0 0 0 0 0 0 0 0 0 
0 0 0 0 0 0 0 0 0 0 0 0 0 0 0 0 0 0 0 0 0 0 0 0 
0 0 0 0 0 0 0 0 0 0 0 0 15 15 14 48 49 48 75 74 73 72 72 73 
61 60 62 65 66 67 72 72 70 69 69 70 42 41 41 11 12 11 0 0 0 0 0 0 
0 0 0 0 0 0 0 0 0 0 0 0 0 0 0 0 0 0 0 0 0 0 0 0 
0 0 0 0 0 0 0 0 0 0 0 0 0 0 0 0 0 0 0 0 0 0 0 0 
0 0 0 0 0 0 0 0 0 0 0 0 0 0 0 0 0 0 0 0 0 0 0 0 
0 0 0 0 0 0 0 0 0 0 0 0 0 0 0 0 0 0 0 0 0 0 0 0 

0 0 0 0 0 0 0 0 0 0 0 0 0 0 0 0 0 0 0 0 0 0 0 0 
0 0 0 0 0 0 0 0 0 0 0 0 0 0 0 0 0 0 0 0 0 0 0 0 
0 0 0 0 0 0 0 0 0 0 0 0 0 0 0 0 0 0 0 0 0 0 0 0 
0 0 0 0 0 0 0 0 0 0 0 0 0 0 0 0 0 0 0 0 0 0 0 0 
0 0 0 0 0 0 0 0 0 13 13 12 56 58 58 80 80 80 42 41 41 15 16 18 
7 8 12 9 10 12 15 16 18 43 43 45 81 83 84 61 60 62 18 18 19 1 1 1 
0 0 0 0 0 0 0 0 0 0 0 0 0 0 0 0 0 0 0 0 0 0 0 0 
0 0 0 0 0 0 0 0 0 0 0 0 0 0 0 0 0 0 0 0 0 0 0 0 
0 0 0 0 0 0 0 0 0 0 0 0 0 0 0 0 0 0 0 0 0 0 0 0 
0 0 0 0 0 0 0 0 0 0 0 0 0 0 0 0 0 0 0 0 0 0 0 0 

0 0 0 0 0 0 0 0 0 0 0 0 0 0 0 0 0 0 0 0 0 0 0 0 
0 0 0 0 0 0 0 0 0 0 0 0 0 0 0 0 0 0 0 0 0 0 0 0 
0 0 0 0 0 0 0 0 0 0 0 0 0 0 0 0 0 0 0 0 0 0 0 0 
0 0 0 0 0 0 0 0 0 0 0 0 0 0 0 0 0 0 0 0 0 0 0 0 
0 0 0 0 0 0 2 3 2 41 38 40 72 72 73 29 30 33 12 15 17 7 9 13 
6 6 10 8 10 10 9 11 13 9 10 12 24 25 26 69 69 68 66 67 65 16 16 16 
0 0 0 0 0 0 0 0 0 0 0 0 0 0 0 0 0 0 0 0 0 0 0 0 
0 0 0 0 0 0 0 0 0 0 0 0 0 0 0 0 0 0 0 0 0 0 0 0 
0 0 0 0 0 0 0 0 0 0 0 0 0 0 0 0 0 0 0 0 0 0 0 0 
0 0 0 0 0 0 0 0 0 0 0 0 0 0 0 0 0 0 0 0 0 0 0 0 

0 0 0 0 0 0 0 0 0 0 0 0 0 0 0 0 0 0 0 0 0 0 0 0 
0 0 0 0 0 0 0 0 0 0 0 0 0 0 0 0 0 0 0 0 0 0 0 0 
0 0 0 0 0 0 0 0 0 0 0 0 0 0 0 0 0 0 0 0 0 0 0 0 
0 0 0 0 0 0 0 0 0 0 0 0 0 0 0 0 0 0 0 0 0 0 0 0 
0 0 0 0 0 0 8 8 8 66 63 65 54 55 53 6 8 9 7 8 12 7 9 13 
6 6 10 8 10 10 9 11 13 9 10 12 9 11 13 28 30 29 78 77 77 47 48 48 
5 6 5 0 0 0 0 0 0 0 0 0 0 0 0 0 0 0 0 0 0 0 0 0 
0 0 0 0 0 0 0 0 0 0 0 0 0 0 0 0 0 0 0 0 0 0 0 0 
0 0 0 0 0 0 0 0 0 0 0 0 0 0 0 0 0 0 0 0 0 0 0 0 
0 0 0 0 0 0 0 0 0 0 0 0 0 0 0 0 0 0 0 0 0 0 0 0 

0 0 0 0 0 0 0 0 0 0 0 0 0 0 0 0 0 0 0 0 0 0 0 0 
0 0 0 0 0 0 0 0 0 0 0 0 0 0 0 0 0 0 0 0 0 0 0 0 
0 0 0 0 0 0 0 0 0 0 0 0 0 0 0 0 0 0 0 0 0 0 0 0 
0 0 0 0 0 0 0 0 0 0 0 0 0 0 0 0 0 0 0 0 0 0 0 0 
0 0 0 0 0 0 15 15 14 75 74 73 43 43 45 6 8 9 6 6 10 4 3 10 
6 6 10 6 8 9 6 8 9 9 10 12 9 10 12 11 12 14 50 50 52 69 69 70 
13 13 12 0 0 0 0 0 0 0 0 0 0 0 0 0 0 0 0 0 0 0 0 0 
0 0 0 0 0 0 0 0 0 0 0 0 0 0 0 0 0 0 0 0 0 0 0 0 
0 0 0 0 0 0 0 0 0 0 0 0 0 0 0 0 0 0 0 0 0 0 0 0 
0 0 0 0 0 0 0 0 0 0 0 0 0 0 0 0 0 0 0 0 0 0 0 0 

0 0 0 0 0 0 0 0 0 0 0 0 0 0 0 0 0 0 0 0 0 0 0 0 
0 0 0 0 0 0 0 0 0 0 0 0 0 0 0 0 0 0 0 0 0 0 0 0 
0 0 0 0 0 0 0 0 0 0 0 0 0 0 0 0 0 0 0 0 0 0 0 0 
0 0 0 0 0 0 0 0 0 0 0 0 0 0 0 0 0 0 0 0 0 0 0 0 
0 0 0 0 0 0 22 22 22 74 75 76 28 30 29 6 8 9 3 4 5 0 2 5 
3 4 5 3 4 5 6 8 9 8 10 10 8 10 10 11 12 14 50 50 52 74 75 76 
16 16 16 0 0 0 0 0 0 0 0 0 0 0 0 0 0 0 0 0 0 0 0 0 
0 0 0 0 0 0 0 0 0 0 0 0 0 0 0 0 0 0 0 0 0 0 0 0 
0 0 0 0 0 0 0 0 0 0 0 0 0 0 0 0 0 0 0 0 0 0 0 0 
0 0 0 0 0 0 0 0 0 0 0 0 0 0 0 0 0 0 0 0 0 0 0 0 

0 0 0 0 0 0 0 0 0 0 0 0 0 0 0 0 0 0 0 0 0 0 0 0 
0 0 0 0 0 0 0 0 0 0 0 0 0 0 0 0 0 0 0 0 0 0 0 0 
0 0 0 0 0 0 0 0 0 0 0 0 0 0 0 0 0 0 0 0 0 0 0 0 
0 0 0 0 0 0 0 0 0 0 0 0 0 0 0 0 0 0 0 0 0 0 0 0 
2 2 2 15 15 14 48 49 48 110 110 105 56 58 58 21 20 24 22 22 22 28 30 29 
27 28 25 21 20 24 9 11 13 11 12 14 3 4 5 9 10 12 55 55 56 72 72 73 
15 15 14 0 0 0 0 0 0 0 0 0 0 0 0 0 0 0 0 0 0 0 0 0 
0 0 0 0 0 0 0 0 0 0 0 0 0 0 0 0 0 0 0 0 0 0 0 0 
0 0 0 0 0 0 0 0 0 0 0 0 0 0 0 0 0 0 0 0 0 0 0 0 
0 0 0 0 0 0 0 0 0 0 0 0 0 0 0 0 0 0 0 0 0 0 0 0 

0 0 0 0 0 0 0 0 0 0 0 0 0 0 0 0 0 0 0 0 0 0 0 0 
0 0 0 0 0 0 0 0 0 0 0 0 0 0 0 0 0 0 0 0 0 0 0 0 
0 0 0 0 0 0 0 0 0 0 0 0 0 0 0 0 0 0 0 0 0 0 0 0 
0 0 0 0 0 0 0 0 0 0 0 0 0 0 0 0 0 0 0 0 0 5 6 5 
29 28 29 66 67 65 87 84 84 81 83 84 55 55 56 37 38 37 37 38 37 37 38 37 
48 49 48 61 60 62 63 63 66 54 49 54 47 48 48 37 38 37 80 80 80 72 72 73 
13 13 12 0 0 0 0 0 0 0 0 0 0 0 0 0 0 0 0 0 0 0 0 0 
0 0 0 0 0 0 0 0 0 0 0 0 0 0 0 0 0 0 0 0 0 0 0 0 
0 0 0 0 0 0 0 0 0 0 0 0 0 0 0 0 0 0 0 0 0 0 0 0 
0 0 0 0 0 0 0 0 0 0 0 0 0 0 0 0 0 0 0 0 0 0 0 0 

0 0 0 0 0 0 0 0 0 0 0 0 0 0 0 0 0 0 0 0 0 0 0 0 
0 0 0 0 0 0 0 0 0 0 0 0 0 0 0 0 0 0 0 0 0 0 0 0 
0 0 0 0 0 0 0 0 0 0 0 0 0 0 0 0 0 0 0 0 0 0 0 0 
0 0 0 0 0 0 0 0 0 0 0 0 0 0 0 0 0 0 5 6 5 37 38 37 
80 80 80 83 81 79 69 67 65 69 67 65 75 74 73 72 69 64 59 57 55 43 43 41 
30 29 30 27 28 25 34 35 35 37 38 37 48 49 48 66 63 65 109 107 105 91 92 93 
33 33 34 4 4 4 0 0 0 0 0 0 0 0 0 0 0 0 0 0 0 0 0 0 
0 0 0 0 0 0 0 0 0 0 0 0 0 0 0 0 0 0 0 0 0 0 0 0 
0 0 0 0 0 0 0 0 0 0 0 0 0 0 0 0 0 0 0 0 0 0 0 0 
0 0 0 0 0 0 0 0 0 0 0 0 0 0 0 0 0 0 0 0 0 0 0 0 

0 0 0 0 0 0 0 0 0 0 0 0 0 0 0 0 0 0 0 0 0 0 0 0 
0 0 0 0 0 0 0 0 0 0 0 0 0 0 0 0 0 0 0 0 0 0 0 0 
0 0 0 0 0 0 0 0 0 0 0 0 0 0 0 0 0 0 0 0 0 0 0 0 
0 0 0 0 0 0 0 0 0 0 0 0 0 0 0 8 8 8 37 38 37 90 91 89 
109 107 105 104 101 95 104 101 95 110 105 97 110 105 97 107 102 92 104 99 90 96 92 83 
91 89 79 87 83 79 91 86 79 83 81 79 79 77 76 62 62 59 43 43 45 69 69 68 
80 80 80 33 33 34 5 6 5 0 0 0 0 0 0 0 0 0 0 0 0 0 0 0 
0 0 0 0 0 0 0 0 0 0 0 0 0 0 0 0 0 0 0 0 0 0 0 0 
0 0 0 0 0 0 0 0 0 0 0 0 0 0 0 0 0 0 0 0 0 0 0 0 
0 0 0 0 0 0 0 0 0 0 0 0 0 0 0 0 0 0 0 0 0 0 0 0 

0 0 0 0 0 0 0 0 0 0 0 0 0 0 0 0 0 0 0 0 0 0 0 0 
0 0 0 0 0 0 0 0 0 0 0 0 0 0 0 0 0 0 0 0 0 0 0 0 
0 0 0 0 0 0 0 0 0 0 0 0 0 0 0 0 0 0 0 0 0 0 0 0 
0 0 0 0 0 0 0 0 0 0 0 0 5 6 5 37 38 37 91 92 93 119 115 106 
107 102 92 104 99 90 104 99 90 107 102 92 107 102 92 104 99 90 104 99 90 104 99 90 
104 99 90 107 102 92 107 102 92 110 105 97 110 105 97 109 107 105 99 98 95 69 69 68 
66 67 65 80 80 80 37 35 35 4 4 4 0 0 0 0 0 0 0 0 0 0 0 0 
0 0 0 0 0 0 0 0 0 0 0 0 0 0 0 0 0 0 0 0 0 0 0 0 
0 0 0 0 0 0 0 0 0 0 0 0 0 0 0 0 0 0 0 0 0 0 0 0 
0 0 0 0 0 0 0 0 0 0 0 0 0 0 0 0 0 0 0 0 0 0 0 0 

0 0 0 0 0 0 0 0 0 0 0 0 0 0 0 0 0 0 0 0 0 0 0 0 
0 0 0 0 0 0 0 0 0 0 0 0 0 0 0 0 0 0 0 0 0 0 0 0 
0 0 0 0 0 0 0 0 0 0 0 0 0 0 0 0 0 0 0 0 0 0 0 0 
0 0 0 0 0 0 0 0 0 5 6 5 37 38 37 95 95 94 117 116 115 107 102 92 
99 98 90 104 99 90 104 99 90 104 101 95 104 101 95 104 99 90 107 102 92 110 105 97 
104 99 90 104 99 90 104 99 90 107 102 92 107 102 92 110 105 97 119 115 106 122 120 118 
99 98 95 75 74 73 78 77 77 34 35 35 4 4 4 0 0 0 0 0 0 0 0 0 
0 0 0 0 0 0 0 0 0 0 0 0 0 0 0 0 0 0 0 0 0 0 0 0 
0 0 0 0 0 0 0 0 0 0 0 0 0 0 0 0 0 0 0 0 0 0 0 0 
0 0 0 0 0 0 0 0 0 0 0 0 0 0 0 0 0 0 0 0 0 0 0 0 

0 0 0 0 0 0 0 0 0 0 0 0 0 0 0 0 0 0 0 0 0 0 0 0 
0 0 0 0 0 0 0 0 0 0 0 0 0 0 0 0 0 0 0 0 0 0 0 0 
0 0 0 0 0 0 0 0 0 0 0 0 0 0 0 0 0 0 0 0 0 0 0 0 
0 0 0 0 0 0 8 8 8 42 41 41 95 95 94 117 116 115 99 98 90 82 81 75 
69 69 68 62 62 59 57 55 52 48 48 45 46 48 44 47 43 41 52 51 48 69 67 65 
79 75 73 87 83 79 91 86 79 99 98 90 104 101 95 110 110 105 110 110 105 110 105 97 
127 123 118 119 115 106 83 81 79 72 72 73 28 26 25 1 1 1 0 0 0 0 0 0 
0 0 0 0 0 0 0 0 0 0 0 0 0 0 0 0 0 0 0 0 0 0 0 0 
0 0 0 0 0 0 0 0 0 0 0 0 0 0 0 0 0 0 0 0 0 0 0 0 
0 0 0 0 0 0 0 0 0 0 0 0 0 0 0 0 0 0 0 0 0 0 0 0 

0 0 0 0 0 0 0 0 0 0 0 0 0 0 0 0 0 0 0 0 0 0 0 0 
0 0 0 0 0 0 0 0 0 0 0 0 0 0 0 0 0 0 0 0 0 0 0 0 
0 0 0 0 0 0 0 0 0 0 0 0 0 0 0 0 0 0 0 0 0 0 0 0 
0 0 0 11 10 11 47 48 48 90 91 89 81 83 84 47 48 48 32 32 33 21 20 24 
17 15 19 17 15 19 15 16 18 15 16 18 10 12 16 11 12 11 12 14 15 15 16 18 
18 18 19 24 25 26 32 31 29 41 38 40 59 57 55 76 73 69 99 98 90 110 105 97 
110 110 105 127 123 118 122 120 118 101 99 98 63 63 66 11 12 11 0 0 0 0 0 0 
0 0 0 0 0 0 0 0 0 0 0 0 0 0 0 0 0 0 0 0 0 0 0 0 
0 0 0 0 0 0 0 0 0 0 0 0 0 0 0 0 0 0 0 0 0 0 0 0 
0 0 0 0 0 0 0 0 0 0 0 0 0 0 0 0 0 0 0 0 0 0 0 0 

0 0 0 0 0 0 0 0 0 0 0 0 0 0 0 0 0 0 0 0 0 0 0 0 
0 0 0 0 0 0 0 0 0 0 0 0 0 0 0 0 0 0 0 0 0 0 0 0 
0 0 0 0 0 0 0 0 0 0 0 0 0 0 0 0 0 0 0 0 0 0 0 0 
15 15 14 54 55 53 80 80 80 47 48 48 24 25 26 24 25 26 32 32 33 34 35 35 
37 38 37 37 38 37 42 41 41 43 43 45 46 48 44 43 43 41 41 38 40 32 31 29 
30 29 30 24 25 26 21 20 24 18 18 19 18 18 19 22 22 22 32 32 33 61 58 57 
99 98 90 119 115 106 127 123 118 127 123 118 99 98 95 33 33 34 1 1 1 0 0 0 
0 0 0 0 0 0 0 0 0 0 0 0 0 0 0 0 0 0 0 0 0 0 0 0 
0 0 0 0 0 0 0 0 0 0 0 0 0 0 0 0 0 0 0 0 0 0 0 0 
0 0 0 0 0 0 0 0 0 0 0 0 0 0 0 0 0 0 0 0 0 0 0 0 

0 0 0 0 0 0 0 0 0 0 0 0 0 0 0 0 0 0 0 0 0 0 0 0 
0 0 0 0 0 0 0 0 0 0 0 0 0 0 0 0 0 0 0 0 0 0 0 0 
0 0 0 0 0 0 0 0 0 0 0 0 0 0 0 0 0 0 0 0 0 15 15 14 
56 58 58 87 84 84 61 60 58 61 60 58 72 72 70 83 81 79 91 89 79 91 89 79 
91 89 79 91 89 79 97 93 87 99 98 90 99 98 90 99 98 90 99 98 90 96 89 85 
91 86 79 79 77 76 69 67 65 62 58 54 47 43 41 34 35 35 29 30 33 23 23 25 
32 32 33 72 72 70 127 123 118 129 128 123 117 116 115 66 63 65 11 10 11 0 0 0 
0 0 0 0 0 0 0 0 0 0 0 0 0 0 0 0 0 0 0 0 0 0 0 0 
0 0 0 0 0 0 0 0 0 0 0 0 0 0 0 0 0 0 0 0 0 0 0 0 
0 0 0 0 0 0 0 0 0 0 0 0 0 0 0 0 0 0 0 0 0 0 0 0 

0 0 0 0 0 0 0 0 0 0 0 0 0 0 0 0 0 0 0 0 0 0 0 0 
0 0 0 0 0 0 0 0 0 0 0 0 0 0 0 0 0 0 0 0 0 0 0 0 
0 0 0 0 0 0 0 0 0 0 0 0 0 0 0 0 0 0 13 13 12 55 55 56 
99 98 95 96 92 83 97 93 87 97 93 87 97 93 87 96 92 83 91 86 79 96 88 80 
96 88 80 96 92 83 96 92 83 96 92 83 96 92 83 96 88 80 96 88 80 96 89 85 
96 88 80 91 89 79 96 92 83 96 88 80 91 86 79 87 83 79 82 81 75 74 71 65 
55 55 56 43 43 41 55 55 56 110 110 105 136 133 125 98 98 97 34 35 35 2 3 2 
0 0 0 0 0 0 0 0 0 0 0 0 0 0 0 0 0 0 0 0 0 0 0 0 
0 0 0 0 0 0 0 0 0 0 0 0 0 0 0 0 0 0 0 0 0 0 0 0 
0 0 0 0 0 0 0 0 0 0 0 0 0 0 0 0 0 0 0 0 0 0 0 0 

0 0 0 0 0 0 0 0 0 0 0 0 0 0 0 0 0 0 0 0 0 0 0 0 
0 0 0 0 0 0 0 0 0 0 0 0 0 0 0 0 0 0 0 0 0 0 0 0 
0 0 0 0 0 0 0 0 0 0 0 0 0 0 0 10 9 9 48 49 48 98 98 97 
104 101 95 99 98 90 97 93 87 96 89 85 97 93 87 97 93 87 96 92 83 96 88 80 
91 86 79 91 89 79 91 86 79 91 86 79 91 86 79 96 88 80 96 89 85 91 86 79 
96 89 85 97 93 87 96 92 83 96 92 83 96 88 80 91 86 79 91 86 79 97 93 87 
97 93 87 99 98 90 87 81 75 62 58 54 104 101 95 127 123 118 75 74 73 18 18 19 
0 0 0 0 0 0 0 0 0 0 0 0 0 0 0 0 0 0 0 0 0 0 0 0 
0 0 0 0 0 0 0 0 0 0 0 0 0 0 0 0 0 0 0 0 0 0 0 0 
0 0 0 0 0 0 0 0 0 0 0 0 0 0 0 0 0 0 0 0 0 0 0 0 

0 0 0 0 0 0 0 0 0 0 0 0 0 0 0 0 0 0 0 0 0 0 0 0 
0 0 0 0 0 0 0 0 0 0 0 0 0 0 0 0 0 0 0 0 0 0 0 0 
0 0 0 0 0 0 0 0 0 0 0 0 2 3 2 37 38 37 91 92 93 109 107 105 
104 101 95 97 93 87 91 86 79 81 76 70 81 74 66 81 76 70 81 74 66 72 69 64 
69 64 59 69 64 59 69 64 59 72 72 64 74 71 65 74 71 65 74 71 65 76 73 66 
87 81 75 96 88 80 96 92 83 104 99 90 104 99 90 104 99 90 96 92 83 91 89 79 
91 86 79 91 86 79 104 99 90 110 105 97 91 86 79 99 98 90 111 111 111 50 50 52 
5 6 5 0 0 0 0 0 0 0 0 0 0 0 0 0 0 0 0 0 0 0 0 0 
0 0 0 0 0 0 0 0 0 0 0 0 0 0 0 0 0 0 0 0 0 0 0 0 
0 0 0 0 0 0 0 0 0 0 0 0 0 0 0 0 0 0 0 0 0 0 0 0 

0 0 0 0 0 0 0 0 0 0 0 0 0 0 0 0 0 0 0 0 0 0 0 0 
0 0 0 0 0 0 0 0 0 0 0 0 0 0 0 0 0 0 0 0 0 0 0 0 
0 0 0 0 0 0 0 0 0 1 1 1 24 23 22 80 80 80 110 110 105 91 86 79 
76 73 66 76 73 66 74 71 65 74 71 65 76 73 66 76 73 66 74 71 65 72 72 64 
74 71 65 74 71 65 72 72 64 76 73 69 76 73 69 74 71 65 76 73 66 81 76 70 
81 76 70 81 74 66 81 76 70 87 81 75 87 83 79 91 86 79 97 93 87 97 93 87 
97 93 87 96 92 83 91 86 79 96 92 83 119 115 106 104 101 95 85 83 84 80 80 80 
23 23 25 0 0 0 0 0 0 0 0 0 0 0 0 0 0 0 0 0 0 0 0 0 
0 0 0 0 0 0 0 0 0 0 0 0 0 0 0 0 0 0 0 0 0 0 0 0 
0 0 0 0 0 0 0 0 0 0 0 0 0 0 0 0 0 0 0 0 0 0 0 0 

0 0 0 0 0 0 0 0 0 0 0 0 0 0 0 0 0 0 0 0 0 0 0 0 
0 0 0 0 0 0 0 0 0 0 0 0 0 0 0 0 0 0 0 0 0 0 0 0 
0 0 0 0 0 0 0 0 0 16 16 16 66 67 65 104 105 102 87 81 75 69 64 59 
66 65 60 62 62 59 62 62 59 52 51 48 46 48 44 43 43 41 37 38 37 32 31 29 
30 29 30 28 30 29 28 30 29 27 28 25 30 29 30 37 35 35 43 40 40 46 48 44 
59 57 55 69 64 59 76 73 69 82 81 75 82 81 75 82 81 75 82 81 75 87 81 75 
87 83 79 96 92 83 104 99 90 104 99 90 99 98 90 127 123 118 104 105 102 78 77 77 
47 48 48 4 4 4 0 0 0 0 0 0 0 0 0 0 0 0 0 0 0 0 0 0 
0 0 0 0 0 0 0 0 0 0 0 0 0 0 0 0 0 0 0 0 0 0 0 0 
0 0 0 0 0 0 0 0 0 0 0 0 0 0 0 0 0 0 0 0 0 0 0 0 

0 0 0 0 0 0 0 0 0 0 0 0 0 0 0 0 0 0 0 0 0 0 0 0 
0 0 0 0 0 0 0 0 0 0 0 0 0 0 0 0 0 0 0 0 0 0 0 0 
0 0 0 0 0 0 10 9 9 54 55 53 104 105 102 97 94 93 72 69 64 46 48 44 
27 28 25 20 20 18 16 16 16 11 10 11 8 10 13 9 10 12 7 8 12 7 9 13 
7 9 13 7 7 12 7 9 13 7 7 12 6 8 9 8 10 13 7 9 13 8 10 13 
12 14 15 18 20 18 24 25 26 34 35 35 52 51 48 61 60 58 75 74 73 82 81 75 
82 81 75 82 81 75 87 83 79 97 93 87 104 101 95 110 105 97 129 128 123 119 115 106 
72 72 70 15 15 14 0 0 0 0 0 0 0 0 0 0 0 0 0 0 0 0 0 0 
0 0 0 0 0 0 0 0 0 0 0 0 0 0 0 0 0 0 0 0 0 0 0 0 
0 0 0 0 0 0 0 0 0 0 0 0 0 0 0 0 0 0 0 0 0 0 0 0 

0 0 0 0 0 0 0 0 0 0 0 0 0 0 0 0 0 0 0 0 0 0 0 0 
0 0 0 0 0 0 0 0 0 0 0 0 0 0 0 0 0 0 0 0 0 0 0 0 
0 0 0 2 2 2 33 33 34 95 95 94 101 99 98 59 57 55 22 22 22 10 9 9 
8 8 8 6 8 9 9 10 12 9 10 12 10 11 14 18 18 19 21 20 21 24 25 26 
24 25 26 24 23 22 28 26 25 24 25 26 21 20 21 21 20 21 15 16 18 12 15 17 
10 11 14 9 9 13 9 9 13 10 12 16 12 15 17 15 16 18 23 23 25 37 35 35 
52 47 46 66 63 65 82 81 75 87 83 79 96 89 85 104 99 90 119 115 106 144 141 133 
101 99 98 29 28 29 0 0 0 0 0 0 0 0 0 0 0 0 0 0 0 0 0 0 
0 0 0 0 0 0 0 0 0 0 0 0 0 0 0 0 0 0 0 0 0 0 0 0 
0 0 0 0 0 0 0 0 0 0 0 0 0 0 0 0 0 0 0 0 0 0 0 0 

0 0 0 0 0 0 0 0 0 0 0 0 0 0 0 0 0 0 0 0 0 0 0 0 
0 0 0 0 0 0 0 0 0 0 0 0 0 0 0 0 0 0 0 0 0 0 0 0 
0 0 0 13 13 12 69 69 70 98 98 97 46 48 44 15 15 14 10 9 9 12 12 15 
21 20 21 28 30 29 37 38 37 48 48 45 52 51 48 54 55 53 61 60 58 66 63 65 
69 67 65 69 67 65 69 67 65 72 69 64 76 73 66 69 67 65 66 62 60 62 62 59 
54 53 52 43 43 45 30 29 30 21 20 21 15 16 18 10 10 16 12 15 17 10 11 14 
12 15 17 21 20 21 37 35 35 62 62 59 87 83 79 96 89 85 97 93 87 127 123 118 
122 120 118 48 49 48 4 4 4 0 0 0 0 0 0 0 0 0 0 0 0 0 0 0 
0 0 0 0 0 0 0 0 0 0 0 0 0 0 0 0 0 0 0 0 0 0 0 0 
0 0 0 0 0 0 0 0 0 0 0 0 0 0 0 0 0 0 0 0 0 0 0 0 

0 0 0 0 0 0 0 0 0 0 0 0 0 0 0 0 0 0 0 0 0 0 0 0 
0 0 0 0 0 0 0 0 0 0 0 0 0 0 0 0 0 0 0 0 0 0 0 0 
2 2 2 37 35 35 85 83 84 37 38 37 12 15 17 18 18 19 30 29 30 43 43 45 
59 57 55 61 60 58 66 62 60 66 65 60 59 57 55 59 57 55 57 55 52 62 62 59 
59 57 55 57 55 52 62 58 54 62 58 54 66 62 60 69 64 59 72 69 64 81 76 70 
76 73 66 81 76 70 81 76 70 76 73 69 66 65 60 59 57 55 42 41 41 24 25 26 
18 18 19 15 15 14 13 13 12 12 15 17 37 38 37 79 77 76 99 98 90 104 99 90 
122 120 118 80 80 80 18 18 19 0 0 0 0 0 0 0 0 0 0 0 0 0 0 0 
0 0 0 0 0 0 0 0 0 0 0 0 0 0 0 0 0 0 0 0 0 0 0 0 
0 0 0 0 0 0 0 0 0 0 0 0 0 0 0 0 0 0 0 0 0 0 0 0 

0 0 0 0 0 0 0 0 0 0 0 0 0 0 0 0 0 0 0 0 0 0 0 0 
0 0 0 0 0 0 0 0 0 0 0 0 0 0 0 0 0 0 0 0 0 0 0 0 
11 10 11 66 63 65 55 55 56 28 30 29 47 48 48 61 60 58 62 62 59 61 60 58 
52 51 48 52 47 46 52 47 46 48 48 45 52 47 46 47 42 47 43 40 40 47 43 41 
41 38 40 41 38 40 41 38 40 41 38 40 41 38 40 43 40 40 47 43 41 52 47 46 
57 55 52 61 58 57 69 64 59 72 72 64 81 74 66 87 81 75 82 81 75 76 73 69 
62 62 59 42 41 41 21 20 24 12 15 17 15 16 18 30 29 30 69 69 68 97 93 87 
110 110 105 109 107 105 43 43 45 5 6 5 0 0 0 0 0 0 0 0 0 0 0 0 
0 0 0 0 0 0 0 0 0 0 0 0 0 0 0 0 0 0 0 0 0 0 0 0 
0 0 0 0 0 0 0 0 0 0 0 0 0 0 0 0 0 0 0 0 0 0 0 0 

0 0 0 0 0 0 0 0 0 0 0 0 0 0 0 0 0 0 0 0 0 0 0 0 
0 0 0 0 0 0 0 0 0 0 0 0 0 0 0 0 0 0 0 0 0 0 0 0 
29 28 29 89 85 87 76 73 69 72 69 64 69 67 65 57 55 52 48 48 45 46 48 44 
47 42 47 49 34 57 49 34 57 41 22 48 49 34 57 49 34 57 49 34 57 42 17 59 
42 17 59 42 17 59 51 21 70 42 17 59 42 17 59 41 22 48 41 22 48 41 22 48 
41 22 48 49 34 57 62 46 64 62 46 64 54 49 54 59 57 55 66 65 60 74 71 65 
76 73 69 82 81 75 81 76 70 54 55 53 34 35 35 21 20 24 21 20 21 52 51 48 
97 94 93 122 120 118 78 77 77 16 16 16 0 0 0 0 0 0 0 0 0 0 0 0 
0 0 0 0 0 0 0 0 0 0 0 0 0 0 0 0 0 0 0 0 0 0 0 0 
0 0 0 0 0 0 0 0 0 0 0 0 0 0 0 0 0 0 0 0 0 0 0 0 

0 0 0 0 0 0 0 0 0 0 0 0 0 0 0 0 0 0 0 0 0 0 0 0 
0 0 0 0 0 0 0 0 0 0 0 0 0 0 0 0 0 0 0 0 0 11 10 11 
61 60 58 104 105 102 82 81 75 61 60 58 52 47 46 43 40 40 49 34 57 54 31 73 
67 36 85 67 36 85 67 36 85 67 26 88 76 37 98 76 37 98 80 39 105 84 49 105 
80 39 105 89 46 112 89 46 112 95 51 123 95 51 123 95 51 123 95 51 123 95 51 123 
95 51 123 107 59 134 92 56 114 67 36 85 80 51 88 67 36 85 49 34 57 54 49 54 
61 58 57 66 62 60 76 73 69 83 81 79 82 81 75 69 67 65 37 38 37 21 20 24 
41 38 40 99 98 95 104 105 102 32 32 33 1 1 1 0 0 0 0 0 0 0 0 0 
0 0 0 0 0 0 0 0 0 0 0 0 0 0 0 0 0 0 0 0 0 0 0 0 
0 0 0 0 0 0 0 0 0 0 0 0 0 0 0 0 0 0 0 0 0 0 0 0 

0 0 0 0 0 0 0 0 0 0 0 0 0 0 0 0 0 0 0 0 0 0 0 0 
0 0 0 0 0 0 0 0 0 0 0 0 0 0 0 2 2 2 16 16 16 48 49 48 
90 91 89 72 72 64 52 51 48 37 38 37 37 35 35 62 46 64 80 51 88 84 49 105 
80 39 105 89 46 112 89 46 112 95 51 123 102 62 128 102 57 129 107 59 134 107 59 134 
114 63 144 114 63 144 116 72 144 116 72 144 116 72 144 114 63 144 107 59 134 123 68 154 
116 72 144 84 49 105 20 17 26 7 5 10 41 22 48 92 56 114 92 56 114 76 37 98 
67 36 85 62 46 64 61 58 57 69 64 59 81 76 70 89 88 84 90 91 89 69 69 68 
30 29 30 32 32 33 90 91 89 54 53 52 4 4 4 0 0 0 0 0 0 0 0 0 
0 0 0 0 0 0 0 0 0 0 0 0 0 0 0 0 0 0 0 0 0 0 0 0 
0 0 0 0 0 0 0 0 0 0 0 0 0 0 0 0 0 0 0 0 0 0 0 0 

0 0 0 0 0 0 0 0 0 0 0 0 0 0 0 0 0 0 0 0 0 0 0 0 
0 0 0 0 0 0 0 0 0 0 0 0 0 0 0 16 16 16 63 63 66 117 96 119 
122 120 118 49 34 57 20 17 26 13 8 17 36 21 41 84 49 105 92 56 114 102 62 128 
95 51 123 102 57 129 102 62 128 107 59 134 108 69 134 114 63 144 114 63 144 114 63 144 
114 63 144 107 59 134 107 59 134 107 59 134 114 63 144 114 63 144 102 62 128 84 49 105 
36 21 41 7 5 10 6 8 9 3 4 5 0 2 5 20 17 26 92 56 114 114 63 144 
107 59 134 95 51 123 76 37 98 62 46 64 54 49 54 61 60 58 79 75 73 97 94 93 
89 88 84 42 41 41 55 55 56 69 69 68 11 10 11 0 0 0 0 0 0 0 0 0 
0 0 0 0 0 0 0 0 0 0 0 0 0 0 0 0 0 0 0 0 0 0 0 0 
0 0 0 0 0 0 0 0 0 0 0 0 0 0 0 0 0 0 0 0 0 0 0 0 

0 0 0 0 0 0 0 0 0 0 0 0 0 0 0 0 0 0 0 0 0 0 0 0 
0 0 0 0 0 0 0 0 0 0 0 0 1 1 1 32 32 33 83 73 88 92 56 114 
92 56 114 67 36 85 36 21 41 18 10 26 42 17 59 92 56 114 108 69 134 108 69 134 
102 62 128 107 59 134 108 69 134 107 59 134 102 57 129 102 57 129 102 57 129 107 59 134 
102 57 129 107 59 134 102 62 128 102 62 128 84 49 105 49 34 57 34 15 31 7 7 12 
6 9 9 10 11 14 8 10 13 7 8 12 6 6 10 0 2 5 36 21 41 92 56 114 
114 63 144 123 68 154 123 68 154 102 62 128 80 51 88 62 46 64 57 55 52 69 67 65 
89 88 84 99 98 95 85 83 84 78 77 77 18 18 19 0 0 0 0 0 0 0 0 0 
0 0 0 0 0 0 0 0 0 0 0 0 0 0 0 0 0 0 0 0 0 0 0 0 
0 0 0 0 0 0 0 0 0 0 0 0 0 0 0 0 0 0 0 0 0 0 0 0 

0 0 0 0 0 0 0 0 0 0 0 0 0 0 0 0 0 0 0 0 0 0 0 0 
0 0 0 0 0 0 0 0 0 0 0 0 0 0 0 32 32 33 89 84 92 76 37 98 
67 26 88 51 21 70 42 17 59 34 15 31 51 21 70 102 62 128 116 72 144 116 72 144 
108 69 134 108 69 134 102 62 128 102 57 129 102 62 128 92 56 114 84 49 105 80 51 88 
67 36 85 54 31 73 41 22 48 18 10 26 7 7 12 5 6 5 6 8 9 9 11 13 
10 11 14 10 10 16 9 9 13 7 8 12 9 9 13 6 6 10 0 2 5 41 22 48 
107 59 134 123 68 154 123 68 154 132 72 167 123 68 154 92 56 114 76 52 86 47 48 48 
66 62 60 81 76 70 104 101 95 98 98 97 30 29 30 0 0 0 0 0 0 0 0 0 
0 0 0 0 0 0 0 0 0 0 0 0 0 0 0 0 0 0 0 0 0 0 0 0 
0 0 0 0 0 0 0 0 0 0 0 0 0 0 0 0 0 0 0 0 0 0 0 0 

0 0 0 0 0 0 0 0 0 0 0 0 0 0 0 0 0 0 0 0 0 0 0 0 
0 0 0 0 0 0 0 0 0 0 0 0 0 0 0 23 23 25 90 91 89 80 51 88 
51 21 70 42 17 59 42 17 59 34 15 31 54 31 73 116 72 144 116 72 144 108 69 134 
102 62 128 102 57 129 102 57 129 84 49 105 41 22 48 20 17 26 13 8 17 6 6 10 
0 2 5 1 3 1 3 4 5 6 9 9 8 10 10 10 10 16 10 12 16 10 12 16 
10 12 16 10 12 16 10 11 14 10 11 14 10 10 16 7 7 12 3 4 5 6 6 10 
67 36 85 114 63 144 132 72 167 132 72 167 132 72 167 123 68 154 80 51 88 20 17 26 
49 34 57 62 46 64 82 81 75 99 98 95 37 38 37 1 1 1 0 0 0 0 0 0 
0 0 0 0 0 0 0 0 0 0 0 0 0 0 0 0 0 0 0 0 0 0 0 0 
0 0 0 0 0 0 0 0 0 0 0 0 0 0 0 0 0 0 0 0 0 0 0 0 

0 0 0 0 0 0 0 0 0 0 0 0 0 0 0 0 0 0 0 0 0 0 0 0 
0 0 0 0 0 0 0 0 0 0 0 0 0 0 0 24 23 22 89 84 92 84 49 105 
51 21 70 51 21 70 51 21 70 36 21 41 67 36 85 116 72 144 116 72 144 102 62 128 
95 51 123 92 56 114 67 36 85 18 10 26 4 3 10 5 3 5 7 5 10 6 8 9 
6 9 9 8 10 10 11 12 14 10 12 16 10 12 16 10 12 16 10 12 16 12 12 15 
10 10 16 10 11 14 9 11 13 11 12 14 11 12 14 8 10 13 7 8 12 3 4 5 
31 26 32 102 57 129 132 72 167 132 72 167 132 72 167 153 94 184 80 51 88 18 10 26 
51 21 70 67 36 85 69 69 70 91 92 93 37 38 37 1 1 1 0 0 0 0 0 0 
0 0 0 0 0 0 0 0 0 0 0 0 0 0 0 0 0 0 0 0 0 0 0 0 
0 0 0 0 0 0 0 0 0 0 0 0 0 0 0 0 0 0 0 0 0 0 0 0 

0 0 0 0 0 0 0 0 0 0 0 0 0 0 0 0 0 0 0 0 0 0 0 0 
0 0 0 0 0 0 0 0 0 0 0 0 0 0 0 24 25 26 83 73 88 84 49 105 
67 36 85 54 31 73 51 21 70 42 17 59 76 37 98 116 72 144 116 72 144 95 51 123 
89 46 112 67 36 85 13 8 17 21 20 24 41 22 48 49 34 57 36 21 41 17 15 19 
10 9 9 11 12 11 11 12 14 10 12 16 10 12 16 10 12 16 11 12 14 9 11 13 
8 10 13 6 9 9 6 8 9 7 8 12 7 8 12 9 10 12 9 9 13 7 9 13 
7 7 12 67 36 85 123 68 154 132 72 167 132 72 167 153 94 184 80 51 88 34 15 31 
54 31 73 95 51 123 118 99 134 104 105 102 33 33 34 1 1 1 0 0 0 0 0 0 
0 0 0 0 0 0 0 0 0 0 0 0 0 0 0 0 0 0 0 0 0 0 0 0 
0 0 0 0 0 0 0 0 0 0 0 0 0 0 0 0 0 0 0 0 0 0 0 0 

0 0 0 0 0 0 0 0 0 0 0 0 0 0 0 0 0 0 0 0 0 0 0 0 
0 0 0 0 0 0 0 0 0 0 0 0 0 0 0 18 18 19 74 75 76 92 56 114 
76 37 98 67 26 88 51 21 70 51 21 70 89 46 112 116 72 144 116 72 144 89 46 112 
76 37 98 18 10 26 5 6 5 7 5 10 63 41 46 114 69 121 96 68 113 49 34 57 
9 10 12 9 10 12 11 12 14 12 15 17 12 15 17 12 15 17 17 15 19 31 26 32 
41 22 48 41 22 48 41 22 48 41 22 48 41 38 40 31 24 29 9 9 13 7 9 13 
4 3 10 49 34 57 114 63 144 132 72 167 132 72 167 153 94 184 67 36 85 36 21 41 
51 21 70 76 37 98 116 72 144 122 120 118 56 58 58 18 18 19 5 6 5 2 2 2 
0 0 0 0 0 0 0 0 0 0 0 0 0 0 0 0 0 0 0 0 0 0 0 0 
0 0 0 0 0 0 0 0 0 0 0 0 0 0 0 0 0 0 0 0 0 0 0 0 

0 0 0 0 0 0 0 0 0 0 0 0 0 0 0 0 0 0 0 0 0 0 0 0 
0 0 0 0 0 0 0 0 0 0 0 0 0 0 0 5 6 5 48 49 48 89 84 92 
84 49 105 76 37 98 54 31 73 67 36 85 108 69 134 116 72 144 102 57 129 80 39 105 
54 31 73 7 5 10 8 10 10 9 9 13 71 48 58 114 69 121 114 69 121 49 34 57 
6 8 9 9 11 13 10 11 14 12 15 17 12 15 17 12 15 17 20 17 26 96 53 87 
136 69 119 136 69 119 96 53 87 36 21 41 31 24 29 17 15 19 10 11 14 9 9 13 
6 8 9 20 17 26 95 51 123 132 72 167 132 72 167 153 94 184 84 49 105 36 21 41 
54 31 73 67 26 88 80 39 105 116 72 144 111 111 111 78 77 77 54 55 53 34 35 35 
11 12 11 1 1 1 0 0 0 0 0 0 0 0 0 0 0 0 0 0 0 0 0 0 
0 0 0 0 0 0 0 0 0 0 0 0 0 0 0 0 0 0 0 0 0 0 0 0 

0 0 0 0 0 0 0 0 0 0 0 0 0 0 0 0 0 0 0 0 0 0 0 0 
0 0 0 0 0 0 0 0 0 0 0 0 0 0 0 0 0 0 18 18 19 69 69 70 
96 68 113 84 49 105 67 36 85 84 49 105 144 98 162 116 72 144 95 51 123 80 39 105 
20 17 26 6 6 10 8 10 13 7 9 13 76 52 86 114 69 121 114 69 121 76 52 86 
6 8 9 9 11 13 11 12 14 12 15 17 15 16 18 12 15 17 31 24 29 136 69 119 
136 69 119 136 69 119 96 53 87 12 12 15 7 9 13 8 10 13 10 12 16 10 12 16 
7 8 12 18 10 26 80 39 105 132 72 167 132 72 167 153 94 184 84 49 105 42 17 59 
67 26 88 67 26 88 67 26 88 89 46 112 108 69 134 117 96 119 117 96 119 96 68 113 
47 48 48 5 6 5 0 0 0 0 0 0 0 0 0 0 0 0 0 0 0 0 0 0 
0 0 0 0 0 0 0 0 0 0 0 0 0 0 0 0 0 0 0 0 0 0 0 0 

0 0 0 0 0 0 0 0 0 0 0 0 0 0 0 0 0 0 0 0 0 0 0 0 
0 0 0 0 0 0 0 0 0 0 0 0 0 0 0 0 0 0 2 2 2 27 28 25 
78 77 77 117 96 119 92 56 114 92 56 114 123 68 154 114 63 144 95 51 123 54 31 73 
6 6 10 7 9 13 8 10 13 7 8 12 71 48 58 117 96 119 139 101 135 83 73 88 
8 8 8 11 12 14 12 12 15 12 12 15 15 16 18 12 15 17 36 21 41 136 69 119 
136 69 119 136 69 119 96 53 87 13 8 17 10 12 16 10 11 14 9 9 13 10 12 16 
9 10 12 13 8 17 76 37 98 123 68 154 153 94 184 153 94 184 84 49 105 51 21 70 
76 37 98 76 37 98 76 37 98 76 37 98 80 39 105 80 39 105 80 39 105 116 72 144 
66 63 65 8 8 8 0 0 0 0 0 0 0 0 0 0 0 0 0 0 0 0 0 0 
0 0 0 0 0 0 0 0 0 0 0 0 0 0 0 0 0 0 0 0 0 0 0 0 

0 0 0 0 0 0 0 0 0 0 0 0 0 0 0 0 0 0 0 0 0 0 0 0 
0 0 0 0 0 0 0 0 0 0 0 0 0 0 0 0 0 0 0 0 0 2 3 2 
27 28 25 69 69 68 111 98 106 139 101 135 144 98 162 102 57 129 108 69 134 117 116 115 
18 20 18 7 8 12 10 11 14 8 8 8 66 63 65 139 101 135 139 101 135 83 73 88 
8 8 8 11 12 14 12 12 15 12 12 15 12 14 15 10 12 16 36 21 41 136 69 119 
144 98 162 156 138 156 117 96 119 10 10 16 12 15 17 10 11 14 7 9 13 10 11 14 
11 12 14 10 10 16 67 36 85 123 68 154 153 94 184 153 94 184 76 37 98 54 31 73 
76 37 98 76 37 98 80 39 105 76 37 98 80 39 105 84 49 105 114 69 121 94 89 94 
37 38 37 4 4 4 0 0 0 0 0 0 0 0 0 0 0 0 0 0 0 0 0 0 
0 0 0 0 0 0 0 0 0 0 0 0 0 0 0 0 0 0 0 0 0 0 0 0 

0 0 0 0 0 0 0 0 0 0 0 0 0 0 0 0 0 0 0 0 0 0 0 0 
0 0 0 0 0 0 0 0 0 0 0 0 0 0 0 0 0 0 0 0 0 0 0 0 
2 2 2 15 15 14 46 48 44 104 105 102 118 99 134 107 59 134 76 37 98 136 132 134 
97 93 87 6 8 9 9 10 12 9 10 12 41 38 40 139 101 135 139 101 135 62 46 64 
6 6 10 10 11 14 11 12 14 11 12 14 11 12 14 11 12 14 31 26 32 139 101 135 
156 138 156 156 138 156 98 92 105 7 8 12 12 15 17 10 11 14 9 9 13 10 12 16 
10 11 14 6 6 10 67 36 85 123 68 154 153 94 184 144 98 162 54 31 73 67 36 85 
76 37 98 84 49 105 84 49 105 76 37 98 76 37 98 117 96 119 89 85 87 37 38 37 
8 8 8 0 0 0 0 0 0 0 0 0 0 0 0 0 0 0 0 0 0 0 0 0 
0 0 0 0 0 0 0 0 0 0 0 0 0 0 0 0 0 0 0 0 0 0 0 0 

0 0 0 0 0 0 0 0 0 0 0 0 0 0 0 0 0 0 0 0 0 0 0 0 
0 0 0 0 0 0 0 0 0 0 0 0 0 0 0 0 0 0 0 0 0 0 0 0 
0 0 0 0 0 0 10 9 9 48 49 48 98 92 105 108 69 134 67 36 85 83 73 88 
154 151 143 89 88 84 16 16 16 7 5 10 12 12 15 98 92 105 122 120 118 31 24 29 
3 4 5 3 4 5 9 10 12 6 9 9 6 9 9 9 11 13 17 15 19 117 96 119 
156 138 156 156 138 156 69 69 70 7 9 13 15 16 18 12 15 17 10 12 16 7 9 13 
7 7 12 50 50 52 96 68 113 123 68 154 153 94 184 116 72 144 51 21 70 67 36 85 
80 39 105 84 49 105 76 37 98 76 37 98 108 69 134 95 95 94 35 33 32 5 6 5 
0 0 0 0 0 0 0 0 0 0 0 0 0 0 0 0 0 0 0 0 0 0 0 0 
0 0 0 0 0 0 0 0 0 0 0 0 0 0 0 0 0 0 0 0 0 0 0 0 

0 0 0 0 0 0 0 0 0 0 0 0 0 0 0 0 0 0 0 0 0 0 0 0 
0 0 0 0 0 0 0 0 0 0 0 0 0 0 0 0 0 0 0 0 0 0 0 0 
0 0 0 0 0 0 0 0 0 11 12 11 46 48 44 80 80 80 94 89 94 89 84 92 
136 132 134 154 151 143 111 111 111 43 43 45 11 10 11 21 20 21 30 29 30 10 9 9 
28 26 25 75 74 73 111 111 111 101 99 98 52 51 48 13 13 12 5 6 5 62 46 64 
156 138 156 139 101 135 20 17 26 8 10 13 12 15 17 7 9 13 6 8 9 34 35 35 
104 105 102 165 162 165 139 101 135 123 68 154 153 94 184 84 49 105 54 31 73 67 36 85 
76 37 98 80 39 105 76 37 98 96 68 113 117 96 119 48 49 48 8 8 8 0 0 0 
0 0 0 0 0 0 0 0 0 0 0 0 0 0 0 0 0 0 0 0 0 0 0 0 
0 0 0 0 0 0 0 0 0 0 0 0 0 0 0 0 0 0 0 0 0 0 0 0 

0 0 0 0 0 0 0 0 0 0 0 0 0 0 0 0 0 0 0 0 0 0 0 0 
0 0 0 0 0 0 0 0 0 0 0 0 0 0 0 0 0 0 0 0 0 0 0 0 
0 0 0 0 0 0 0 0 0 0 0 0 5 6 5 18 20 18 35 37 35 55 55 56 
89 85 87 136 132 134 144 139 140 140 140 134 122 120 118 104 101 95 99 98 90 109 107 105 
136 133 125 144 141 133 144 141 133 144 141 133 148 146 140 109 107 105 57 55 52 21 20 21 
47 42 47 31 26 32 3 4 5 7 8 12 23 23 25 46 48 44 104 105 102 165 162 156 
165 162 165 180 178 177 156 138 156 123 68 154 153 94 184 96 68 113 84 49 105 96 68 113 
114 69 121 114 69 121 98 92 105 94 89 94 52 51 48 13 13 12 0 0 0 0 0 0 
0 0 0 0 0 0 0 0 0 0 0 0 0 0 0 0 0 0 0 0 0 0 0 0 
0 0 0 0 0 0 0 0 0 0 0 0 0 0 0 0 0 0 0 0 0 0 0 0 

0 0 0 0 0 0 0 0 0 0 0 0 0 0 0 0 0 0 0 0 0 0 0 0 
0 0 0 0 0 0 0 0 0 0 0 0 0 0 0 0 0 0 0 0 0 0 0 0 
0 0 0 0 0 0 0 0 0 0 0 0 0 0 0 0 0 0 1 1 1 8 8 8 
29 28 29 78 77 77 129 128 123 140 140 134 140 140 134 140 140 134 144 141 133 144 141 133 
144 141 133 129 128 123 122 120 118 119 115 106 122 120 118 129 128 123 140 140 134 117 116 115 
83 81 79 69 67 65 79 77 76 111 111 111 140 140 134 165 162 156 180 178 177 172 170 165 
172 170 165 172 170 165 156 138 156 116 72 144 139 101 135 101 99 98 89 85 87 85 83 84 
80 80 80 69 69 68 52 51 48 29 28 29 10 9 9 0 0 0 0 0 0 0 0 0 
0 0 0 0 0 0 0 0 0 0 0 0 0 0 0 0 0 0 0 0 0 0 0 0 
0 0 0 0 0 0 0 0 0 0 0 0 0 0 0 0 0 0 0 0 0 0 0 0 

0 0 0 0 0 0 0 0 0 0 0 0 0 0 0 0 0 0 0 0 0 0 0 0 
0 0 0 0 0 0 0 0 0 0 0 0 0 0 0 0 0 0 0 0 0 0 0 0 
0 0 0 0 0 0 0 0 0 0 0 0 0 0 0 0 0 0 0 0 0 0 0 0 
2 3 2 24 25 26 72 72 73 129 128 123 140 140 134 144 141 133 144 141 133 144 141 133 
144 141 133 148 146 140 144 141 133 144 141 133 140 140 134 144 141 133 136 133 125 140 140 134 
154 151 143 165 162 156 180 178 177 172 170 165 165 162 156 165 162 156 172 170 165 172 170 165 
127 123 118 37 38 37 75 74 73 117 116 115 61 60 58 30 29 30 21 20 21 18 20 18 
15 15 14 10 9 9 4 4 4 0 0 0 0 0 0 0 0 0 0 0 0 0 0 0 
0 0 0 0 0 0 0 0 0 0 0 0 0 0 0 0 0 0 0 0 0 0 0 0 
0 0 0 0 0 0 0 0 0 0 0 0 0 0 0 0 0 0 0 0 0 0 0 0 

0 0 0 0 0 0 0 0 0 0 0 0 0 0 0 0 0 0 0 0 0 0 0 0 
0 0 0 0 0 0 0 0 0 0 0 0 0 0 0 0 0 0 0 0 0 0 0 0 
0 0 0 0 0 0 0 0 0 0 0 0 0 0 0 0 0 0 0 0 0 0 0 0 
0 0 0 2 2 2 24 23 22 69 69 70 136 132 134 154 151 143 154 151 143 148 146 140 
148 146 140 148 146 140 148 146 140 148 146 140 148 146 140 144 141 133 144 141 133 148 146 140 
148 146 140 154 151 143 165 162 156 165 162 156 172 170 165 172 170 165 144 139 140 69 67 65 
11 10 11 12 14 15 50 50 52 72 72 70 18 18 19 1 1 1 0 0 0 0 0 0 
0 0 0 0 0 0 0 0 0 0 0 0 0 0 0 0 0 0 0 0 0 0 0 0 
0 0 0 0 0 0 0 0 0 0 0 0 0 0 0 0 0 0 0 0 0 0 0 0 
0 0 0 0 0 0 0 0 0 0 0 0 0 0 0 0 0 0 0 0 0 0 0 0 

0 0 0 0 0 0 0 0 0 0 0 0 0 0 0 0 0 0 0 0 0 0 0 0 
0 0 0 0 0 0 0 0 0 0 0 0 0 0 0 0 0 0 0 0 0 0 0 0 
0 0 0 0 0 0 0 0 0 0 0 0 0 0 0 0 0 0 0 0 0 0 0 0 
0 0 0 1 1 1 16 16 16 61 60 62 109 107 105 61 60 58 83 81 79 129 128 123 
144 141 133 148 146 140 154 151 143 154 151 143 154 151 143 154 151 143 154 151 143 154 151 143 
154 151 143 165 162 156 165 162 156 154 151 143 129 128 123 76 73 69 24 23 22 24 23 22 
34 35 35 42 41 41 85 83 84 43 43 41 4 4 4 0 0 0 0 0 0 0 0 0 
0 0 0 0 0 0 0 0 0 0 0 0 0 0 0 0 0 0 0 0 0 0 0 0 
0 0 0 0 0 0 0 0 0 0 0 0 0 0 0 0 0 0 0 0 0 0 0 0 
0 0 0 0 0 0 0 0 0 0 0 0 0 0 0 0 0 0 0 0 0 0 0 0 

0 0 0 0 0 0 0 0 0 0 0 0 0 0 0 0 0 0 0 0 0 0 0 0 
0 0 0 0 0 0 0 0 0 0 0 0 0 0 0 0 0 0 0 0 0 0 0 0 
0 0 0 0 0 0 0 0 0 0 0 0 0 0 0 0 0 0 0 0 0 0 0 0 
10 9 9 32 32 33 66 63 65 95 95 94 59 57 55 16 16 16 8 8 8 35 33 32 
61 60 58 87 81 75 104 101 95 119 115 106 127 123 118 127 123 118 122 120 118 119 115 106 
110 110 105 99 98 95 83 81 79 61 60 58 37 35 35 30 28 26 59 57 55 79 77 76 
87 84 84 104 105 102 95 95 94 33 33 34 8 8 8 0 0 0 0 0 0 0 0 0 
0 0 0 0 0 0 0 0 0 0 0 0 0 0 0 0 0 0 0 0 0 0 0 0 
0 0 0 0 0 0 0 0 0 0 0 0 0 0 0 0 0 0 0 0 0 0 0 0 
0 0 0 0 0 0 0 0 0 0 0 0 0 0 0 0 0 0 0 0 0 0 0 0 

0 0 0 0 0 0 0 0 0 0 0 0 0 0 0 0 0 0 0 0 0 0 0 0 
0 0 0 0 0 0 0 0 0 0 0 0 0 0 0 0 0 0 0 0 0 0 0 0 
0 0 0 0 0 0 0 0 0 0 0 0 0 0 0 0 0 0 0 0 0 11 12 11 
55 55 56 104 105 102 127 123 118 127 123 118 117 116 115 110 110 105 101 99 98 79 77 76 
62 58 54 52 51 48 69 64 59 82 81 75 87 83 79 87 81 75 81 76 70 74 71 65 
66 65 60 57 55 52 48 48 45 43 40 40 46 48 44 83 81 79 101 99 98 109 107 105 
101 99 98 110 110 105 122 120 118 81 83 84 47 48 48 13 13 12 0 0 0 0 0 0 
0 0 0 0 0 0 0 0 0 0 0 0 0 0 0 0 0 0 0 0 0 0 0 0 
0 0 0 0 0 0 0 0 0 0 0 0 0 0 0 0 0 0 0 0 0 0 0 0 
0 0 0 0 0 0 0 0 0 0 0 0 0 0 0 0 0 0 0 0 0 0 0 0 

0 0 0 0 0 0 0 0 0 0 0 0 0 0 0 0 0 0 0 0 0 0 0 0 
0 0 0 0 0 0 0 0 0 0 0 0 0 0 0 0 0 0 0 0 0 0 0 0 
0 0 0 0 0 0 0 0 0 0 0 0 0 0 0 2 3 2 18 18 19 54 53 52 
109 107 105 101 99 98 75 74 73 66 67 65 66 65 60 72 72 70 90 91 89 111 111 111 
129 128 123 104 105 102 66 62 60 74 71 65 83 81 79 87 83 79 79 75 73 74 71 65 
79 77 76 90 91 89 104 105 102 122 120 118 144 139 140 180 178 177 180 178 177 180 178 177 
180 178 177 165 162 165 165 162 165 165 162 165 144 139 140 46 48 44 8 8 8 0 0 0 
0 0 0 0 0 0 0 0 0 0 0 0 0 0 0 0 0 0 0 0 0 0 0 0 
0 0 0 0 0 0 0 0 0 0 0 0 0 0 0 0 0 0 0 0 0 0 0 0 
0 0 0 0 0 0 0 0 0 0 0 0 0 0 0 0 0 0 0 0 0 0 0 0 

0 0 0 0 0 0 0 0 0 0 0 0 0 0 0 0 0 0 0 0 0 0 0 0 
0 0 0 0 0 0 0 0 0 0 0 0 0 0 0 0 0 0 0 0 0 0 0 0 
0 0 0 0 0 0 0 0 0 1 1 1 15 15 14 42 41 41 75 74 73 90 91 89 
72 72 70 37 38 37 32 31 29 14 12 11 14 12 11 20 20 18 20 20 18 24 23 22 
47 43 41 109 107 105 129 128 123 83 81 79 57 55 52 66 65 60 101 99 98 140 140 134 
158 153 155 148 146 140 117 116 115 99 98 95 90 91 89 81 83 84 72 72 73 65 66 67 
65 66 67 50 50 52 50 50 52 90 91 89 129 128 123 95 95 94 46 48 44 16 16 16 
1 1 1 0 0 0 0 0 0 0 0 0 0 0 0 0 0 0 0 0 0 0 0 0 
0 0 0 0 0 0 0 0 0 0 0 0 0 0 0 0 0 0 0 0 0 0 0 0 
0 0 0 0 0 0 0 0 0 0 0 0 0 0 0 0 0 0 0 0 0 0 0 0 

0 0 0 0 0 0 0 0 0 0 0 0 0 0 0 0 0 0 0 0 0 0 0 0 
0 0 0 0 0 0 0 0 0 0 0 0 0 0 0 0 0 0 0 0 0 0 0 0 
0 0 0 0 0 0 2 3 2 23 23 25 66 63 65 91 92 93 69 69 68 48 48 45 
35 33 32 28 26 25 30 28 26 20 20 18 20 20 18 28 30 29 27 28 25 27 28 25 
32 31 29 35 37 35 109 107 105 165 162 156 101 99 98 111 111 111 158 153 155 129 128 123 
78 77 77 54 53 52 37 38 37 37 38 37 57 55 52 62 62 59 54 53 52 48 48 45 
48 48 45 34 35 35 43 43 45 50 50 52 62 62 59 89 85 87 85 83 84 69 69 68 
29 28 29 5 6 5 0 0 0 0 0 0 0 0 0 0 0 0 0 0 0 0 0 0 
0 0 0 0 0 0 0 0 0 0 0 0 0 0 0 0 0 0 0 0 0 0 0 0 
0 0 0 0 0 0 0 0 0 0 0 0 0 0 0 0 0 0 0 0 0 0 0 0 

0 0 0 0 0 0 0 0 0 0 0 0 0 0 0 0 0 0 0 0 0 0 0 0 
0 0 0 0 0 0 0 0 0 0 0 0 0 0 0 0 0 0 0 0 0 0 0 0 
0 0 0 1 1 1 24 25 26 75 74 73 99 98 95 79 75 73 52 47 46 35 33 32 
32 31 29 24 23 22 30 28 26 24 23 22 30 28 26 37 35 35 37 35 35 32 31 29 
30 28 26 30 28 26 37 35 35 79 77 76 117 116 115 111 111 111 80 80 80 52 51 48 
48 48 45 52 51 48 57 55 52 57 55 52 66 63 65 74 71 65 43 40 40 52 51 48 
48 49 48 32 31 29 50 50 52 43 43 41 28 30 29 52 51 48 62 62 59 101 99 98 
89 85 87 47 48 48 16 16 16 2 2 2 0 0 0 0 0 0 0 0 0 0 0 0 
0 0 0 0 0 0 0 0 0 0 0 0 0 0 0 0 0 0 0 0 0 0 0 0 
0 0 0 0 0 0 0 0 0 0 0 0 0 0 0 0 0 0 0 0 0 0 0 0 

0 0 0 0 0 0 0 0 0 0 0 0 0 0 0 0 0 0 0 0 0 0 0 0 
0 0 0 0 0 0 0 0 0 0 0 0 0 0 0 0 0 0 0 0 0 0 0 0 
0 0 0 16 16 16 66 67 65 97 94 93 76 73 66 62 58 54 54 53 52 32 31 29 
30 28 26 24 23 22 24 23 22 30 28 26 37 35 35 43 43 41 32 31 29 32 31 29 
43 40 40 59 57 55 42 41 41 30 28 26 32 31 29 57 55 52 75 74 73 76 73 69 
61 58 57 52 51 48 57 55 52 59 57 55 62 58 54 76 73 69 47 43 41 54 53 52 
47 43 41 27 28 25 56 58 58 37 38 37 32 32 33 48 49 48 69 67 65 83 81 79 
83 81 79 95 95 94 69 69 68 24 25 26 2 2 2 0 0 0 0 0 0 0 0 0 
0 0 0 0 0 0 0 0 0 0 0 0 0 0 0 0 0 0 0 0 0 0 0 0 
0 0 0 0 0 0 0 0 0 0 0 0 0 0 0 0 0 0 0 0 0 0 0 0 

0 0 0 0 0 0 0 0 0 0 0 0 0 0 0 0 0 0 0 0 0 0 0 0 
0 0 0 0 0 0 0 0 0 0 0 0 0 0 0 0 0 0 0 0 0 1 1 1 
16 16 16 55 55 56 140 140 134 122 120 118 52 51 48 52 47 46 47 43 41 37 35 35 
24 23 22 32 31 29 28 26 25 32 31 29 35 33 32 35 33 32 42 37 35 43 43 41 
66 63 65 48 49 48 59 57 55 41 38 40 48 48 45 83 81 79 89 88 84 109 107 105 
69 67 65 54 53 52 61 58 57 66 62 60 66 65 60 76 73 66 74 71 65 47 43 41 
43 40 40 27 28 25 62 62 59 27 28 25 32 31 29 48 49 48 72 72 70 74 71 65 
75 74 73 85 83 84 91 92 93 66 67 65 21 20 21 1 1 1 0 0 0 0 0 0 
0 0 0 0 0 0 0 0 0 0 0 0 0 0 0 0 0 0 0 0 0 0 0 0 
0 0 0 0 0 0 0 0 0 0 0 0 0 0 0 0 0 0 0 0 0 0 0 0 

0 0 0 0 0 0 0 0 0 0 0 0 0 0 0 0 0 0 0 0 0 0 0 0 
0 0 0 0 0 0 0 0 0 0 0 0 0 0 0 0 0 0 1 1 1 16 16 16 
61 60 62 140 140 134 196 192 191 158 153 155 66 65 60 30 28 26 30 28 26 27 28 25 
20 20 18 28 26 25 30 28 26 32 31 29 42 37 35 43 40 40 37 35 35 28 26 25 
59 57 55 75 74 73 83 81 79 90 91 89 87 84 84 97 94 93 111 111 111 122 120 118 
97 94 93 59 57 55 61 58 57 69 67 65 66 62 60 62 58 54 79 75 73 57 55 52 
30 28 26 30 28 26 52 51 48 21 20 21 37 38 37 59 57 55 66 62 60 72 72 70 
87 84 84 136 132 134 180 178 177 136 132 134 63 63 66 21 20 21 2 2 2 0 0 0 
0 0 0 0 0 0 0 0 0 0 0 0 0 0 0 0 0 0 0 0 0 0 0 0 
0 0 0 0 0 0 0 0 0 0 0 0 0 0 0 0 0 0 0 0 0 0 0 0 

0 0 0 0 0 0 0 0 0 0 0 0 0 0 0 0 0 0 0 0 0 0 0 0 
0 0 0 0 0 0 0 0 0 0 0 0 0 0 0 0 0 0 13 13 12 56 58 58 
144 139 140 196 192 191 180 178 177 165 162 165 111 111 111 28 26 25 15 15 14 18 20 18 
20 20 18 15 15 14 52 51 48 104 105 102 42 37 35 35 33 32 30 28 26 30 28 26 
75 74 73 99 98 95 59 57 55 46 48 44 43 43 41 48 48 45 69 69 68 97 94 93 
109 107 105 87 84 84 61 58 57 76 73 69 83 81 79 74 71 65 59 57 55 61 58 57 
28 26 25 32 31 29 27 28 25 20 20 18 37 35 35 52 47 46 61 58 57 72 69 64 
148 146 140 217 215 213 217 215 213 217 215 213 165 162 165 72 72 70 22 22 22 1 1 1 
0 0 0 0 0 0 0 0 0 0 0 0 0 0 0 0 0 0 0 0 0 0 0 0 
0 0 0 0 0 0 0 0 0 0 0 0 0 0 0 0 0 0 0 0 0 0 0 0 

0 0 0 0 0 0 0 0 0 0 0 0 0 0 0 0 0 0 0 0 0 0 0 0 
0 0 0 0 0 0 0 0 0 0 0 0 0 0 0 4 4 4 41 38 40 129 128 123 
196 192 191 180 178 177 165 162 165 154 151 143 144 139 140 87 84 84 20 20 18 11 12 11 
13 13 12 37 35 35 111 111 111 122 120 118 32 31 29 42 37 35 37 35 35 35 33 32 
72 72 70 87 84 84 66 62 60 43 43 41 41 38 40 47 43 41 52 51 48 87 83 79 
117 116 115 97 93 87 66 62 60 72 69 64 76 73 69 76 73 69 72 69 64 52 47 46 
48 48 45 95 95 94 69 69 68 15 15 14 42 37 35 47 43 41 54 53 52 110 110 105 
196 192 191 217 215 213 217 215 213 217 215 213 217 215 213 180 178 177 66 63 65 13 13 12 
0 0 0 0 0 0 0 0 0 0 0 0 0 0 0 0 0 0 0 0 0 0 0 0 
0 0 0 0 0 0 0 0 0 0 0 0 0 0 0 0 0 0 0 0 0 0 0 0 

0 0 0 0 0 0 0 0 0 0 0 0 0 0 0 0 0 0 0 0 0 0 0 0 
0 0 0 0 0 0 0 0 0 0 0 0 0 0 0 10 9 9 69 69 70 172 170 165 
196 192 191 165 162 156 165 162 156 154 151 143 144 139 140 140 140 134 90 91 89 35 33 32 
48 49 48 74 75 76 74 75 76 95 95 94 43 40 40 42 37 35 42 37 35 42 37 35 
69 67 65 83 81 79 72 72 70 79 77 76 54 53 52 69 67 65 79 77 76 99 98 95 
109 107 105 79 75 73 69 67 65 72 69 64 72 69 64 72 69 64 79 75 73 62 58 54 
43 40 40 101 99 98 136 132 134 66 67 65 43 43 41 47 43 41 66 63 65 144 139 140 
180 178 177 217 215 213 217 215 213 196 192 191 196 192 191 217 215 213 136 132 134 28 26 25 
0 0 0 0 0 0 0 0 0 0 0 0 0 0 0 0 0 0 0 0 0 0 0 0 
0 0 0 0 0 0 0 0 0 0 0 0 0 0 0 0 0 0 0 0 0 0 0 0 

0 0 0 0 0 0 0 0 0 0 0 0 0 0 0 0 0 0 0 0 0 0 0 0 
0 0 0 0 0 0 0 0 0 0 0 0 0 0 0 10 9 9 72 72 73 180 178 177 
180 178 177 165 162 156 154 151 143 136 132 134 111 111 111 87 84 84 72 72 73 61 60 58 
50 50 52 33 33 34 54 53 52 90 91 89 47 43 41 42 37 35 42 37 35 42 37 35 
61 60 58 101 99 98 89 88 84 101 99 98 85 83 84 117 116 115 101 99 98 99 98 95 
89 88 84 74 71 65 76 73 66 76 73 66 72 69 64 72 69 64 69 64 59 66 62 60 
52 47 46 79 75 73 109 107 105 95 95 94 69 69 68 57 55 52 97 93 87 148 146 140 
154 151 143 196 192 191 217 215 213 180 178 177 196 192 191 217 215 213 158 153 155 32 32 33 
1 1 1 0 0 0 0 0 0 0 0 0 0 0 0 0 0 0 0 0 0 0 0 0 
0 0 0 0 0 0 0 0 0 0 0 0 0 0 0 0 0 0 0 0 0 0 0 0 

0 0 0 0 0 0 0 0 0 0 0 0 0 0 0 0 0 0 0 0 0 0 0 0 
0 0 0 0 0 0 0 0 0 0 0 0 0 0 0 4 4 4 34 35 35 104 105 102 
136 132 134 117 116 115 89 85 87 56 58 58 33 33 34 18 18 19 11 10 11 10 9 9 
11 12 11 29 28 29 80 80 80 95 95 94 47 43 41 47 43 41 43 40 40 42 37 35 
61 60 58 66 67 65 72 72 70 83 81 79 48 48 45 79 77 76 83 81 79 69 67 65 
104 101 95 76 73 66 76 73 66 76 73 66 76 73 66 81 76 70 82 81 75 72 69 64 
48 48 45 83 81 79 91 92 93 54 53 52 66 67 65 83 81 79 97 94 93 122 120 118 
136 132 134 148 146 140 158 153 155 165 162 165 180 178 177 196 192 191 117 116 115 21 20 21 
0 0 0 0 0 0 0 0 0 0 0 0 0 0 0 0 0 0 0 0 0 0 0 0 
0 0 0 0 0 0 0 0 0 0 0 0 0 0 0 0 0 0 0 0 0 0 0 0 

0 0 0 0 0 0 0 0 0 0 0 0 0 0 0 0 0 0 0 0 0 0 0 0 
0 0 0 0 0 0 0 0 0 0 0 0 0 0 0 0 0 0 8 8 8 23 23 25 
35 37 35 32 32 33 21 20 21 8 8 8 2 2 2 0 0 0 0 0 0 2 2 2 
28 26 25 72 72 73 72 72 73 35 33 32 27 28 25 35 33 32 35 33 32 37 38 37 
57 55 52 69 69 68 85 83 84 59 57 55 47 43 41 57 55 52 76 73 69 90 91 89 
87 83 79 72 69 64 74 71 65 72 69 64 72 69 64 74 71 65 76 73 69 69 67 65 
57 55 52 82 81 75 104 105 102 50 50 52 29 28 29 41 38 40 54 53 52 50 50 52 
46 48 44 47 48 48 61 60 62 78 77 77 90 91 89 78 77 77 37 38 37 8 8 8 
0 0 0 0 0 0 0 0 0 0 0 0 0 0 0 0 0 0 0 0 0 0 0 0 
0 0 0 0 0 0 0 0 0 0 0 0 0 0 0 0 0 0 0 0 0 0 0 0 

0 0 0 0 0 0 0 0 0 0 0 0 0 0 0 0 0 0 0 0 0 0 0 0 
0 0 0 0 0 0 0 0 0 0 0 0 0 0 0 0 0 0 0 0 0 0 0 0 
2 2 2 1 1 1 0 0 0 0 0 0 0 0 0 2 3 2 8 8 8 24 23 22 
66 63 65 55 55 56 21 20 21 12 12 15 10 9 9 10 9 9 15 15 14 30 28 26 
35 33 32 43 43 41 59 57 55 43 43 41 47 43 41 52 51 48 54 53 52 66 62 60 
69 64 59 74 71 65 76 73 69 76 73 69 81 74 66 81 76 70 79 75 73 66 62 60 
42 37 35 48 49 48 101 99 98 85 83 84 41 38 40 11 10 11 5 6 5 5 6 5 
4 4 4 5 6 5 8 8 8 13 13 12 15 15 14 11 10 11 4 4 4 0 0 0 
0 0 0 0 0 0 0 0 0 0 0 0 0 0 0 0 0 0 0 0 0 0 0 0 
0 0 0 0 0 0 0 0 0 0 0 0 0 0 0 0 0 0 0 0 0 0 0 0 

0 0 0 0 0 0 0 0 0 0 0 0 0 0 0 0 0 0 0 0 0 0 0 0 
0 0 0 0 0 0 0 0 0 0 0 0 0 0 0 0 0 0 0 0 0 0 0 0 
0 0 0 0 0 0 0 0 0 10 9 9 29 28 29 50 50 52 61 60 62 80 80 80 
95 95 94 29 28 29 12 14 15 10 11 14 9 10 12 8 10 10 6 8 9 8 8 8 
10 9 9 10 9 9 19 16 16 24 23 22 30 29 30 37 35 35 42 41 41 37 38 37 
46 48 44 54 53 52 59 57 55 62 62 59 62 62 59 54 53 52 43 43 45 33 33 34 
21 20 21 21 20 21 35 33 32 61 60 58 72 72 73 22 22 22 0 0 0 0 0 0 
0 0 0 0 0 0 0 0 0 0 0 0 0 0 0 0 0 0 0 0 0 0 0 0 
0 0 0 0 0 0 0 0 0 0 0 0 0 0 0 0 0 0 0 0 0 0 0 0 
0 0 0 0 0 0 0 0 0 0 0 0 0 0 0 0 0 0 0 0 0 0 0 0 

0 0 0 0 0 0 0 0 0 0 0 0 0 0 0 0 0 0 0 0 0 0 0 0 
0 0 0 0 0 0 0 0 0 0 0 0 0 0 0 0 0 0 0 0 0 0 0 0 
0 0 0 0 0 0 15 15 14 54 53 52 85 83 84 74 75 76 78 77 77 91 92 93 
111 111 111 56 58 58 50 50 52 33 33 34 7 5 10 7 7 12 9 9 13 7 8 12 
9 10 12 9 10 12 9 10 12 12 14 15 15 16 18 15 16 18 15 16 18 8 8 8 
8 10 10 9 10 12 11 12 14 18 18 19 21 20 24 15 16 18 15 16 18 15 16 18 
21 20 24 29 30 33 30 29 30 41 38 40 74 75 76 37 35 35 1 1 1 0 0 0 
0 0 0 0 0 0 0 0 0 0 0 0 0 0 0 0 0 0 0 0 0 0 0 0 
0 0 0 0 0 0 0 0 0 0 0 0 0 0 0 0 0 0 0 0 0 0 0 0 
0 0 0 0 0 0 0 0 0 0 0 0 0 0 0 0 0 0 0 0 0 0 0 0 

0 0 0 0 0 0 0 0 0 0 0 0 0 0 0 0 0 0 0 0 0 0 0 0 
0 0 0 0 0 0 0 0 0 0 0 0 0 0 0 0 0 0 0 0 0 0 0 0 
0 0 0 13 13 12 61 60 58 85 83 84 55 55 56 33 33 34 18 18 19 16 16 16 
20 20 18 35 33 32 79 75 73 122 120 118 94 89 94 12 15 17 7 7 12 9 10 12 
7 8 12 6 8 9 8 10 10 6 8 9 6 8 9 8 10 10 6 8 9 6 8 9 
5 6 5 3 4 5 3 4 5 6 8 9 9 11 13 24 25 26 32 32 33 32 32 33 
24 25 26 29 28 29 43 43 45 65 66 67 90 91 89 41 38 40 2 2 2 0 0 0 
0 0 0 0 0 0 0 0 0 0 0 0 0 0 0 0 0 0 0 0 0 0 0 0 
0 0 0 0 0 0 0 0 0 0 0 0 0 0 0 0 0 0 0 0 0 0 0 0 
0 0 0 0 0 0 0 0 0 0 0 0 0 0 0 0 0 0 0 0 0 0 0 0 

0 0 0 0 0 0 0 0 0 0 0 0 0 0 0 0 0 0 0 0 0 0 0 0 
0 0 0 0 0 0 0 0 0 0 0 0 0 0 0 0 0 0 0 0 0 0 0 0 
5 6 5 43 43 45 95 95 94 87 84 84 109 107 105 129 128 123 111 111 111 43 43 41 
3 6 2 14 12 11 63 41 46 63 41 46 111 98 106 98 98 97 22 22 22 8 8 8 
7 7 5 21 20 21 12 12 15 8 8 8 8 10 10 8 8 8 6 8 9 7 7 5 
5 6 5 8 10 10 18 20 18 18 18 19 30 29 30 37 38 37 29 30 33 43 43 45 
56 58 58 42 41 41 23 23 25 56 58 58 117 116 115 50 50 52 8 8 8 0 0 0 
0 0 0 0 0 0 0 0 0 0 0 0 0 0 0 0 0 0 0 0 0 0 0 0 
0 0 0 0 0 0 0 0 0 0 0 0 0 0 0 0 0 0 0 0 0 0 0 0 
0 0 0 0 0 0 0 0 0 0 0 0 0 0 0 0 0 0 0 0 0 0 0 0 

0 0 0 0 0 0 0 0 0 0 0 0 0 0 0 0 0 0 0 0 0 0 0 0 
0 0 0 0 0 0 0 0 0 0 0 0 0 0 0 0 0 0 0 0 0 0 0 0 
21 20 21 80 80 80 66 67 65 27 28 25 32 32 33 47 48 48 110 110 105 140 140 134 
48 49 48 3 4 5 19 16 16 63 41 46 63 41 46 129 128 123 111 111 111 61 60 58 
78 77 77 101 99 98 78 77 77 47 48 48 32 32 33 33 33 34 34 35 35 41 38 40 
48 49 48 101 99 98 122 120 118 22 22 22 18 20 18 50 50 52 69 69 70 69 69 70 
81 83 84 80 80 80 89 85 87 65 66 67 80 80 80 90 91 89 28 26 25 1 1 1 
0 0 0 0 0 0 0 0 0 0 0 0 0 0 0 0 0 0 0 0 0 0 0 0 
0 0 0 0 0 0 0 0 0 0 0 0 0 0 0 0 0 0 0 0 0 0 0 0 
0 0 0 0 0 0 0 0 0 0 0 0 0 0 0 0 0 0 0 0 0 0 0 0 

0 0 0 0 0 0 0 0 0 0 0 0 0 0 0 0 0 0 0 0 0 0 0 0 
0 0 0 0 0 0 0 0 0 0 0 0 0 0 0 0 0 0 0 0 0 4 4 4 
48 49 48 78 77 77 21 20 21 15 15 14 18 18 19 7 8 12 18 20 18 104 105 102 
129 128 123 27 28 25 3 4 5 31 24 29 71 48 58 80 51 88 165 162 165 122 120 118 
98 98 97 50 50 52 43 43 41 56 58 58 66 63 65 69 69 68 69 69 68 69 69 68 
72 72 73 111 111 111 90 91 89 18 20 18 63 63 66 55 55 56 29 28 29 15 16 18 
12 14 15 15 16 18 37 38 37 104 105 102 90 91 89 111 111 111 66 63 65 11 10 11 
0 0 0 0 0 0 0 0 0 0 0 0 0 0 0 0 0 0 0 0 0 0 0 0 
0 0 0 0 0 0 0 0 0 0 0 0 0 0 0 0 0 0 0 0 0 0 0 0 
0 0 0 0 0 0 0 0 0 0 0 0 0 0 0 0 0 0 0 0 0 0 0 0 

0 0 0 0 0 0 0 0 0 0 0 0 0 0 0 0 0 0 0 0 0 0 0 0 
0 0 0 0 0 0 0 0 0 0 0 0 0 0 0 0 0 0 0 0 0 15 15 14 
72 72 70 50 50 52 15 15 14 11 12 14 15 16 18 12 12 15 8 8 8 28 30 29 
117 116 115 55 55 56 2 3 2 19 16 16 95 50 61 63 41 46 165 162 165 148 146 140 
66 67 65 15 15 14 2 2 2 5 6 5 11 12 11 13 13 12 13 13 12 16 16 16 
47 48 48 85 83 84 27 28 25 66 67 65 54 55 53 15 16 18 15 16 18 18 18 19 
18 18 19 15 16 18 9 10 12 24 25 26 117 116 115 90 91 89 95 95 94 29 28 29 
1 1 1 0 0 0 0 0 0 0 0 0 0 0 0 0 0 0 0 0 0 0 0 0 
0 0 0 0 0 0 0 0 0 0 0 0 0 0 0 0 0 0 0 0 0 0 0 0 
0 0 0 0 0 0 0 0 0 0 0 0 0 0 0 0 0 0 0 0 0 0 0 0 

0 0 0 0 0 0 0 0 0 0 0 0 0 0 0 0 0 0 0 0 0 0 0 0 
0 0 0 0 0 0 0 0 0 0 0 0 0 0 0 0 0 0 0 0 0 28 26 25 
74 75 76 37 35 35 21 20 21 18 18 19 11 12 14 10 11 14 9 10 12 6 8 9 
90 91 89 72 72 73 5 6 5 16 16 16 63 41 46 63 41 46 144 139 140 158 153 155 
50 50 52 5 6 5 0 0 0 0 0 0 0 0 0 0 0 0 0 0 0 8 8 8 
61 60 62 47 43 41 35 33 32 78 77 77 12 14 15 15 16 18 18 18 19 12 14 15 
18 18 19 15 16 18 9 11 13 8 10 10 48 49 48 98 98 97 109 107 105 48 49 48 
4 4 4 0 0 0 0 0 0 0 0 0 0 0 0 0 0 0 0 0 0 0 0 0 
0 0 0 0 0 0 0 0 0 0 0 0 0 0 0 0 0 0 0 0 0 0 0 0 
0 0 0 0 0 0 0 0 0 0 0 0 0 0 0 0 0 0 0 0 0 0 0 0 

0 0 0 0 0 0 0 0 0 0 0 0 0 0 0 0 0 0 0 0 0 0 0 0 
0 0 0 0 0 0 0 0 0 0 0 0 0 0 0 0 0 0 0 0 0 32 32 33 
75 74 73 32 31 29 23 23 25 18 18 19 12 14 15 12 12 15 11 12 14 15 16 18 
81 83 84 63 63 66 10 11 14 21 20 24 63 41 46 63 41 46 156 138 156 144 139 140 
37 35 35 2 2 2 0 0 0 0 0 0 0 0 0 0 0 0 0 0 0 12 12 15 
72 72 70 32 31 29 37 38 37 37 38 37 6 8 9 11 12 11 11 12 14 11 12 14 
15 16 18 15 16 18 9 11 13 11 12 14 18 18 19 85 83 84 109 107 105 66 63 65 
8 8 8 0 0 0 0 0 0 0 0 0 0 0 0 0 0 0 0 0 0 0 0 0 
0 0 0 0 0 0 0 0 0 0 0 0 0 0 0 0 0 0 0 0 0 0 0 0 
0 0 0 0 0 0 0 0 0 0 0 0 0 0 0 0 0 0 0 0 0 0 0 0 

0 0 0 0 0 0 0 0 0 0 0 0 0 0 0 0 0 0 0 0 0 0 0 0 
0 0 0 0 0 0 0 0 0 0 0 0 0 0 0 0 0 0 0 0 0 29 28 29 
75 74 73 34 35 35 23 23 25 18 18 19 12 14 15 15 16 18 9 10 12 18 18 19 
65 66 67 56 58 58 18 20 18 31 26 32 95 50 61 95 50 61 165 162 165 91 92 93 
18 18 19 0 0 0 0 0 0 0 0 0 0 0 0 0 0 0 0 0 0 11 12 11 
72 72 70 48 48 45 37 38 37 18 20 18 8 8 8 8 8 8 11 12 14 12 12 15 
15 16 18 18 18 19 15 16 18 18 18 19 24 25 26 78 77 77 98 98 97 63 63 66 
8 8 8 0 0 0 0 0 0 0 0 0 0 0 0 0 0 0 0 0 0 0 0 0 
0 0 0 0 0 0 0 0 0 0 0 0 0 0 0 0 0 0 0 0 0 0 0 0 
0 0 0 0 0 0 0 0 0 0 0 0 0 0 0 0 0 0 0 0 0 0 0 0 

0 0 0 0 0 0 0 0 0 0 0 0 0 0 0 0 0 0 0 0 0 0 0 0 
0 0 0 0 0 0 0 0 0 0 0 0 0 0 0 0 0 0 0 0 0 16 16 16 
72 72 70 48 49 48 21 20 24 15 16 18 9 11 13 10 11 14 8 10 10 24 25 26 
72 72 73 72 72 73 24 25 26 34 15 31 95 50 61 103 91 91 98 98 97 33 33 34 
4 4 4 0 0 0 0 0 0 0 0 0 0 0 0 0 0 0 0 0 0 5 6 5 
56 58 58 75 74 73 32 32 33 15 16 18 6 8 9 8 10 10 9 11 13 9 11 13 
12 12 15 15 16 18 21 20 21 29 28 29 34 35 35 69 69 70 101 99 98 46 48 44 
2 3 2 0 0 0 0 0 0 0 0 0 0 0 0 0 0 0 0 0 0 0 0 0 
0 0 0 0 0 0 0 0 0 0 0 0 0 0 0 0 0 0 0 0 0 0 0 0 
0 0 0 0 0 0 0 0 0 0 0 0 0 0 0 0 0 0 0 0 0 0 0 0 

0 0 0 0 0 0 0 0 0 0 0 0 0 0 0 0 0 0 0 0 0 0 0 0 
0 0 0 0 0 0 0 0 0 0 0 0 0 0 0 0 0 0 0 0 0 5 6 5 
47 48 48 75 74 73 28 30 29 21 20 21 9 10 12 9 11 13 6 6 10 42 41 41 
89 88 84 74 75 76 8 10 10 47 43 41 96 89 85 69 69 68 29 28 29 5 6 5 
0 0 0 0 0 0 0 0 0 0 0 0 0 0 0 0 0 0 0 0 0 1 1 1 
30 29 30 74 75 76 54 53 52 33 33 34 6 8 9 8 10 10 9 10 12 9 10 12 
9 10 12 12 12 15 23 23 25 30 29 30 34 35 35 87 84 84 90 91 89 24 25 26 
0 0 0 0 0 0 0 0 0 0 0 0 0 0 0 0 0 0 0 0 0 0 0 0 
0 0 0 0 0 0 0 0 0 0 0 0 0 0 0 0 0 0 0 0 0 0 0 0 
0 0 0 0 0 0 0 0 0 0 0 0 0 0 0 0 0 0 0 0 0 0 0 0 

0 0 0 0 0 0 0 0 0 0 0 0 0 0 0 0 0 0 0 0 0 0 0 0 
0 0 0 0 0 0 0 0 0 0 0 0 0 0 0 0 0 0 0 0 0 0 0 0 
16 16 16 63 63 66 69 69 70 34 35 35 7 8 12 6 8 9 9 10 12 72 72 73 
104 105 102 35 33 32 29 28 29 78 77 77 54 55 53 16 16 16 2 2 2 0 0 0 
0 0 0 0 0 0 0 0 0 0 0 0 0 0 0 0 0 0 0 0 0 0 0 0 
8 8 8 42 41 41 81 83 84 95 95 94 41 38 40 6 6 10 6 8 9 9 10 12 
9 10 12 10 11 14 24 23 22 37 38 37 59 57 55 95 95 94 55 55 56 8 8 8 
0 0 0 0 0 0 0 0 0 0 0 0 0 0 0 0 0 0 0 0 0 0 0 0 
0 0 0 0 0 0 0 0 0 0 0 0 0 0 0 0 0 0 0 0 0 0 0 0 
0 0 0 0 0 0 0 0 0 0 0 0 0 0 0 0 0 0 0 0 0 0 0 0 

0 0 0 0 0 0 0 0 0 0 0 0 0 0 0 0 0 0 0 0 0 0 0 0 
0 0 0 0 0 0 0 0 0 0 0 0 0 0 0 0 0 0 0 0 0 0 0 0 
1 1 1 18 18 19 56 58 58 66 67 65 54 53 52 47 48 48 61 60 62 91 92 93 
87 84 84 66 63 65 61 60 62 37 35 35 8 8 8 0 0 0 0 0 0 0 0 0 
0 0 0 0 0 0 0 0 0 0 0 0 0 0 0 0 0 0 0 0 0 0 0 0 
0 0 0 8 8 8 34 35 35 83 81 79 72 72 73 43 43 45 37 38 37 24 25 26 
24 25 26 34 35 35 62 62 59 66 67 65 78 77 77 72 72 73 21 20 21 1 1 1 
0 0 0 0 0 0 0 0 0 0 0 0 0 0 0 0 0 0 0 0 0 0 0 0 
0 0 0 0 0 0 0 0 0 0 0 0 0 0 0 0 0 0 0 0 0 0 0 0 
0 0 0 0 0 0 0 0 0 0 0 0 0 0 0 0 0 0 0 0 0 0 0 0 

0 0 0 0 0 0 0 0 0 0 0 0 0 0 0 0 0 0 0 0 0 0 0 0 
0 0 0 0 0 0 0 0 0 0 0 0 0 0 0 0 0 0 0 0 0 0 0 0 
0 0 0 0 0 0 10 9 9 30 29 30 47 48 48 54 53 52 48 49 48 37 38 37 
30 29 30 23 23 25 13 13 12 2 3 2 0 0 0 0 0 0 0 0 0 0 0 0 
0 0 0 0 0 0 0 0 0 0 0 0 0 0 0 0 0 0 0 0 0 0 0 0 
0 0 0 0 0 0 4 4 4 24 25 26 54 55 53 72 72 73 81 83 84 75 74 73 
72 72 73 72 72 73 69 69 68 56 58 58 42 41 41 16 16 16 2 2 2 0 0 0 
0 0 0 0 0 0 0 0 0 0 0 0 0 0 0 0 0 0 0 0 0 0 0 0 
0 0 0 0 0 0 0 0 0 0 0 0 0 0 0 0 0 0 0 0 0 0 0 0 
0 0 0 0 0 0 0 0 0 0 0 0 0 0 0 0 0 0 0 0 0 0 0 0 

0 0 0 0 0 0 0 0 0 0 0 0 0 0 0 0 0 0 0 0 0 0 0 0 
0 2 0 0 0 0 0 0 0 0 0 2 0 0 2 0 0 2 0 0 2 0 0 2 
0 0 0 0 0 0 0 2 0 1 3 1 4 4 4 4 4 4 3 4 5 5 3 5 
4 3 10 5 3 5 5 3 5 7 7 5 7 7 5 1 3 1 1 3 1 3 4 5 
4 4 4 0 0 0 0 0 0 0 0 0 0 0 0 2 2 2 0 0 2 0 0 0 
0 0 0 0 0 0 0 0 0 1 1 1 11 10 11 20 20 18 24 23 22 28 26 25 
23 23 25 18 18 19 14 12 11 10 9 9 7 7 5 3 6 2 6 8 9 6 6 10 
6 6 10 0 2 5 0 0 0 1 3 1 1 3 1 0 0 0 0 0 2 0 2 5 
0 0 2 0 0 2 0 0 2 0 0 0 0 0 0 0 0 2 0 0 2 0 0 2 
0 2 5 0 2 5 0 2 5 0 0 2 0 0 0 0 0 0 0 0 0 0 2 0 
